<svg width="33" height="34" viewBox="0 0 33 34" fill="none" xmlns="http://www.w3.org/2000/svg">
<path d="M16.5 33.9332C25.6127 33.9332 33 26.5195 33 17.3742C33 8.22893 25.6127 0.815216 16.5 0.815216C7.3873 0.815216 0 8.22893 0 17.3742C0 26.5195 7.3873 33.9332 16.5 33.9332Z" fill="#4F0336"/>
<path d="M12.7607 24.759C11.4326 24.759 10.4235 24.4042 9.7334 23.6946C9.0498 22.985 8.70801 21.9954 8.70801 20.7258V14.2708C8.70801 12.9947 9.05306 12.0051 9.74316 11.302C10.4333 10.5924 11.4391 10.2376 12.7607 10.2376C14.0889 10.2376 15.0947 10.5891 15.7783 11.2923C16.4684 11.9954 16.8135 12.9882 16.8135 14.2708V20.7258C16.8135 22.0019 16.4684 22.9947 15.7783 23.7044C15.0882 24.4075 14.0824 24.759 12.7607 24.759ZM12.7607 23.4505C13.6657 23.4505 14.333 23.2161 14.7627 22.7473C15.1924 22.2721 15.4072 21.5982 15.4072 20.7258V14.2708C15.4072 13.3919 15.1924 12.718 14.7627 12.2493C14.333 11.7805 13.6657 11.5462 12.7607 11.5462C11.8558 11.5462 11.1885 11.7805 10.7588 12.2493C10.3291 12.718 10.1143 13.3919 10.1143 14.2708V20.7258C10.1143 21.5982 10.3291 22.2721 10.7588 22.7473C11.1885 23.2161 11.8558 23.4505 12.7607 23.4505ZM23.1709 24.6126H21.7646V11.6048L19.1572 13.2356V11.761L21.1787 10.4133H23.1709V24.6126Z" fill="white"/>
</svg>
