<svg width="33" height="34" viewBox="0 0 33 34" fill="none" xmlns="http://www.w3.org/2000/svg">
<path d="M16.5 33.9332C25.6127 33.9332 33 26.5195 33 17.3742C33 8.22893 25.6127 0.815216 16.5 0.815216C7.3873 0.815216 0 8.22893 0 17.3742C0 26.5195 7.3873 33.9332 16.5 33.9332Z" fill="#4F0336"/>
<path d="M11.5176 23.9724C10.1895 23.9724 9.18034 23.6176 8.49023 22.908C7.80664 22.1983 7.46484 21.2088 7.46484 19.9392V13.4841C7.46484 12.2081 7.8099 11.2185 8.5 10.5154C9.1901 9.80576 10.196 9.45094 11.5176 9.45094C12.8457 9.45094 13.8516 9.80251 14.5352 10.5056C15.2253 11.2088 15.5703 12.2016 15.5703 13.4841V19.9392C15.5703 21.2153 15.2253 22.2081 14.5352 22.9177C13.8451 23.6209 12.8392 23.9724 11.5176 23.9724ZM11.5176 22.6638C12.4225 22.6638 13.0898 22.4295 13.5195 21.9607C13.9492 21.4854 14.1641 20.8116 14.1641 19.9392V13.4841C14.1641 12.6052 13.9492 11.9314 13.5195 11.4627C13.0898 10.9939 12.4225 10.7595 11.5176 10.7595C10.6126 10.7595 9.94531 10.9939 9.51562 11.4627C9.08594 11.9314 8.87109 12.6052 8.87109 13.4841V19.9392C8.87109 20.8116 9.08594 21.4854 9.51562 21.9607C9.94531 22.4295 10.6126 22.6638 11.5176 22.6638ZM18.2852 22.6834L23.627 15.6912C23.9785 15.2354 24.2487 14.7895 24.4375 14.3533C24.6328 13.9106 24.7305 13.52 24.7305 13.1814V13.1619C24.7305 12.4067 24.5124 11.824 24.0762 11.4138C23.64 10.9972 23.0247 10.7888 22.2305 10.7888C21.4883 10.7888 20.8861 11.0102 20.4238 11.4529C19.9681 11.8956 19.6882 12.5239 19.584 13.3377V13.3474H18.1094V13.3377C18.2266 12.5239 18.4642 11.8305 18.8223 11.2576C19.1868 10.6782 19.6556 10.2387 20.2285 9.93922C20.8014 9.63323 21.4622 9.48024 22.2109 9.48024C23.0573 9.48024 23.7799 9.62672 24.3789 9.91969C24.9779 10.2062 25.4336 10.6261 25.7461 11.1795C26.0586 11.7328 26.2148 12.4002 26.2148 13.1814V13.1912C26.2148 13.6339 26.0846 14.1417 25.8242 14.7146C25.5703 15.2875 25.2122 15.8735 24.75 16.4724L20.0527 22.5173H26.293V23.8259H18.2852V22.6834Z" fill="white"/>
</svg>
