<svg width="33" height="34" viewBox="0 0 33 34" fill="none" xmlns="http://www.w3.org/2000/svg">
<path d="M16.5 33.2836C25.6127 33.2836 33 25.8699 33 16.7246C33 7.5793 25.6127 0.165588 16.5 0.165588C7.3873 0.165588 0 7.5793 0 16.7246C0 25.8699 7.3873 33.2836 16.5 33.2836Z" fill="#4F0336"/>
<path d="M11.5176 23.3228C10.1895 23.3228 9.18034 22.968 8.49023 22.2584C7.80664 21.5487 7.46484 20.5591 7.46484 19.2896V12.8345C7.46484 11.5585 7.8099 10.5689 8.5 9.86578C9.1901 9.15615 10.196 8.80133 11.5176 8.80133C12.8457 8.80133 13.8516 9.15289 14.5352 9.85602C15.2253 10.5591 15.5703 11.552 15.5703 12.8345V19.2896C15.5703 20.5657 15.2253 21.5585 14.5352 22.2681C13.8451 22.9713 12.8392 23.3228 11.5176 23.3228ZM11.5176 22.0142C12.4225 22.0142 13.0898 21.7798 13.5195 21.3111C13.9492 20.8358 14.1641 20.162 14.1641 19.2896V12.8345C14.1641 11.9556 13.9492 11.2818 13.5195 10.813C13.0898 10.3443 12.4225 10.1099 11.5176 10.1099C10.6126 10.1099 9.94531 10.3443 9.51562 10.813C9.08594 11.2818 8.87109 11.9556 8.87109 12.8345V19.2896C8.87109 20.162 9.08594 20.8358 9.51562 21.3111C9.94531 21.7798 10.6126 22.0142 11.5176 22.0142ZM22.0742 23.3228C21.2799 23.3228 20.5801 23.1828 19.9746 22.9029C19.3691 22.6229 18.8809 22.216 18.5098 21.6822C18.1452 21.1418 17.9141 20.494 17.8164 19.7388H19.2324C19.3105 20.2141 19.4733 20.621 19.7207 20.9595C19.9681 21.2981 20.2904 21.5552 20.6875 21.731C21.0911 21.9068 21.5534 21.9947 22.0742 21.9947C22.9206 21.9947 23.5749 21.7701 24.0371 21.3209C24.5059 20.8651 24.7402 20.2239 24.7402 19.397V18.9673C24.7402 18.1666 24.5156 17.5481 24.0664 17.1119C23.6172 16.6692 22.9857 16.4478 22.1719 16.4478H21.166V15.1392H22.1719C22.9141 15.1392 23.487 14.9472 23.8906 14.563C24.3008 14.1789 24.5059 13.6386 24.5059 12.942V12.5025C24.5059 11.7538 24.291 11.1776 23.8613 10.774C23.4382 10.3638 22.8392 10.1588 22.0645 10.1588C21.6283 10.1588 21.2344 10.2434 20.8828 10.4127C20.5312 10.5819 20.2318 10.8261 19.9844 11.1451C19.7435 11.4641 19.5677 11.8515 19.457 12.3072H18.0508C18.181 11.578 18.4251 10.953 18.7832 10.4322C19.1478 9.91136 19.6068 9.51422 20.1602 9.24078C20.7201 8.96735 21.3548 8.83063 22.0645 8.83063C23.2884 8.83063 24.2357 9.15289 24.9062 9.79742C25.5768 10.442 25.9121 11.3502 25.9121 12.522V12.9517C25.9121 13.6158 25.7526 14.1952 25.4336 14.69C25.1211 15.1783 24.6751 15.5364 24.0957 15.7642C24.7467 15.9205 25.2513 16.2785 25.6094 16.8384C25.9674 17.3983 26.1465 18.1112 26.1465 18.9771V19.4068C26.1465 20.2336 25.987 20.94 25.668 21.5259C25.349 22.1119 24.8835 22.5578 24.2715 22.8638C23.666 23.1698 22.9336 23.3228 22.0742 23.3228Z" fill="white"/>
</svg>
