<svg width="33" height="34" viewBox="0 0 33 34" fill="none" xmlns="http://www.w3.org/2000/svg">
<path d="M16.5 33.2836C25.6127 33.2836 33 25.8699 33 16.7246C33 7.5793 25.6127 0.165588 16.5 0.165588C7.3873 0.165588 0 7.5793 0 16.7246C0 25.8699 7.3873 33.2836 16.5 33.2836Z" fill="#4F0336"/>
<path d="M11.5176 23.3228C10.1895 23.3228 9.18034 22.968 8.49023 22.2584C7.80664 21.5487 7.46484 20.5591 7.46484 19.2896V12.8345C7.46484 11.5585 7.8099 10.5689 8.5 9.86578C9.1901 9.15615 10.196 8.80133 11.5176 8.80133C12.8457 8.80133 13.8516 9.15289 14.5352 9.85602C15.2253 10.5591 15.5703 11.552 15.5703 12.8345V19.2896C15.5703 20.5657 15.2253 21.5585 14.5352 22.2681C13.8451 22.9713 12.8392 23.3228 11.5176 23.3228ZM11.5176 22.0142C12.4225 22.0142 13.0898 21.7798 13.5195 21.3111C13.9492 20.8358 14.1641 20.162 14.1641 19.2896V12.8345C14.1641 11.9556 13.9492 11.2818 13.5195 10.813C13.0898 10.3443 12.4225 10.1099 11.5176 10.1099C10.6126 10.1099 9.94531 10.3443 9.51562 10.813C9.08594 11.2818 8.87109 11.9556 8.87109 12.8345V19.2896C8.87109 20.162 9.08594 20.8358 9.51562 21.3111C9.94531 21.7798 10.6126 22.0142 11.5176 22.0142ZM18.3047 19.856L23.0703 8.98688H24.5352L19.8867 19.7388H27.4355V20.9986H18.3047V19.856ZM24.7207 14.8267H26.0781V23.1861H24.7207V14.8267Z" fill="white"/>
</svg>
