<svg width="106" height="67" viewBox="0 0 106 67" fill="none" xmlns="http://www.w3.org/2000/svg">
<g clip-path="url(#clip0_307_195)">
<path d="M49.6397 66.7779C49.6397 66.7779 48.1644 64.0482 44.5446 60.9892C42.499 59.2609 39.5861 56.5826 31.1785 54.2781C26.0048 52.8584 20.1516 51.5141 17.2421 50.4545C8.62958 47.3235 5.28635 42.9615 3.22713 40.1632C0.406385 36.3361 -0.365393 31.3294 0.150264 30.935C0.925458 30.3486 2.80026 31.6826 3.5618 32.8691C4.62043 34.5152 4.49408 35.9383 6.25278 37.4575C8.75252 39.6145 13.0485 41.8641 15.0531 42.7866C18.4407 44.3469 21.0019 45.2351 24.9121 45.7221C28.7266 46.1987 30.5092 46.1987 32.6811 45.6398C34.1563 45.2591 34.1495 44.4429 34.0163 44.0451C33.849 43.541 33.0977 43.1227 31.0077 42.8723C28.9178 42.622 26.6639 41.9498 24.574 39.9369C22.484 37.9239 21.0327 33.0097 23.2934 34.4843C27.7123 37.3649 30.4682 38.2668 33.0123 38.764C36.8814 39.5185 40.3374 40.3106 43.9572 42.7077C45.6613 43.836 49.5543 47.1555 50.7256 52.0182C51.1798 53.9043 51.6716 57.7794 51.2276 61.4968C50.8042 65.0426 49.6397 66.7813 49.6397 66.7813V66.7779Z" fill="#CBAB58"/>
<path d="M11.5357 39.2578L7.00064 35.9177C7.00064 35.9177 3.50373 27.9343 4.58627 27.6291C6.16398 27.1833 8.48614 29.2478 9.18279 31.1613C10.1048 33.7058 11.5357 39.2578 11.5357 39.2578Z" fill="#CBAB58"/>
<path d="M17.2421 41.9601L13.0212 40.0534C13.0212 40.0534 9.74627 30.2182 10.9791 29.9061C12.106 29.6215 13.9706 30.6297 15.0907 33.7949C15.5824 35.1872 17.2387 41.9601 17.2387 41.9601H17.2421Z" fill="#CBAB58"/>
<path d="M22.9894 43.7467L19.1374 42.351C19.1374 42.351 15.9 32.6599 16.9723 32.437C18.0446 32.2141 19.9501 33.6235 20.5136 35.3347C21.0771 37.0425 22.9929 43.7467 22.9929 43.7467H22.9894Z" fill="#CBAB58"/>
<path d="M43.0352 37.2448C43.2093 37.3168 43.182 37.4848 42.9669 37.454C41.0989 37.1831 36.0448 37.1968 31.9742 34.3128C27.8113 31.3636 25.5028 25.5955 24.7003 23.3116C24.4305 22.5469 24.5057 22.5435 25.216 22.5469C27.6747 22.5572 34.8632 23.0236 38.3635 24.7485C41.898 26.4871 45.0295 31.8334 46.1052 33.6098C46.2418 33.8361 45.9925 33.9012 45.8764 33.8052C44.968 33.0611 44.0358 32.1832 42.2839 31.5522C40.532 30.9212 39.5212 30.8218 38.705 30.7737C38.2782 30.7497 37.9435 31.2333 38.0801 31.6413C38.4113 32.6427 38.9338 33.7744 40.2793 35.1084C41.6351 36.4492 42.6493 37.0871 43.0352 37.2482V37.2448Z" fill="#CBAB58"/>
<path d="M48.1542 37.8518C48.2259 37.9649 48.1235 38.1055 47.9971 38.0747C47.0409 37.8415 44.2987 37.1042 42.5708 35.9245C40.5423 34.5356 39.6544 32.7936 38.9304 31.8196C38.8348 31.6928 38.9543 31.5144 39.108 31.5556C40.2247 31.8368 42.5981 32.2449 44.589 33.692C46.1906 34.858 47.6522 37.0527 48.1576 37.8518H48.1542Z" fill="#CBAB58"/>
<path d="M36.8405 21.1478C36.8405 21.1478 33.3436 19.0182 32.5684 16.4188C32.203 15.1911 32.1244 14.423 32.1176 14.0286C32.1142 13.8503 32.2747 13.72 32.4488 13.7543C33.1079 13.8846 34.6412 14.2344 35.536 14.7865C37.4142 15.9387 39.1387 19.4126 39.1387 19.4126C39.1387 19.4126 38.4626 18.4558 37.4893 18.1232C36.9736 17.9483 36.6458 17.9414 36.376 17.9414C36.0789 17.9414 36.014 18.0032 35.9594 18.2706C35.9116 18.5073 35.8843 18.8228 35.9253 19.2137C36.0243 20.1533 36.8439 21.1512 36.8439 21.1512L36.8405 21.1478Z" fill="#CBAB58"/>
<path d="M39.7944 22.1903C39.7944 22.228 39.7534 22.252 39.7295 22.252C39.6339 22.252 38.4455 22.0326 37.4586 20.9421C36.4717 19.8515 36.3897 18.737 36.4034 18.5724C36.4102 18.4867 36.4614 18.4558 36.5434 18.4524C36.7824 18.4524 37.8035 18.5381 38.7631 19.7041C39.7773 20.9352 39.791 22.1149 39.791 22.1937L39.7944 22.1903Z" fill="#CBAB58"/>
<path d="M47.297 27.828C47.3756 28.0098 47.28 28.1229 47.1092 28.0338C45.5383 27.2039 41.2799 23.1025 41.9629 17.1218C42.7142 10.5376 49.7046 3.45952 52.9693 0.890983C53.1605 0.740094 53.3961 0.750382 53.5942 0.894412C56.4559 2.98628 64.061 11.46 64.3547 17.9105C64.5801 22.8727 60.9534 26.6175 59.5977 27.4679C59.5465 27.4988 59.386 27.5159 59.4099 27.3959C59.8572 25.1326 59.9153 21.0312 58.9625 18.5106C58.0097 15.9901 55.9471 13.8125 53.8264 12.9929C53.2664 12.7769 52.8395 12.8317 52.2658 13.0101C50.3807 13.5896 48.803 15.2631 47.3073 18.5518C46.2657 20.8426 46.3648 25.6847 47.2936 27.8349L47.297 27.828Z" fill="#CBAB58"/>
<path d="M53.3244 35.2216C53.3244 35.2216 49.1035 30.1497 49.3562 22.5538C49.5646 16.2611 53.1264 16.1376 53.1264 16.1376C53.1264 16.1376 56.876 16.0485 57.0433 22.8899C57.2209 30.1943 53.3244 35.2216 53.3244 35.2216Z" fill="#CBAB58"/>
<path d="M56.3603 66.7779C56.3603 66.7779 57.8356 64.0482 61.4554 60.9892C63.501 59.2609 66.4139 56.5826 74.8215 54.2781C79.9952 52.8584 85.8484 51.5141 88.7579 50.4545C97.3704 47.3235 100.714 42.9615 102.773 40.1632C105.594 36.3361 106.365 31.3259 105.85 30.935C105.075 30.3486 103.2 31.6826 102.438 32.8691C101.38 34.5152 101.506 35.9383 99.7472 37.4575C97.2475 39.6145 92.9515 41.8641 90.9469 42.7866C87.5593 44.3469 84.9981 45.2351 81.088 45.7221C77.2735 46.1987 75.4909 46.1987 73.3189 45.6398C71.8437 45.2591 71.8505 44.4429 71.9837 44.0451C72.151 43.541 72.9023 43.1227 74.9923 42.8723C77.0822 42.622 79.3361 41.9498 81.426 39.9369C83.516 37.9239 84.9673 33.0097 82.7066 34.4843C78.2877 37.3649 75.5318 38.2668 72.9877 38.764C69.1186 39.5185 65.6626 40.3106 62.0428 42.7077C60.3387 43.836 56.4457 47.1555 55.2744 52.0182C54.8202 53.9043 54.3284 57.7794 54.7724 61.4968C55.1958 65.0426 56.3603 66.7813 56.3603 66.7813V66.7779Z" fill="#CBAB58"/>
<path d="M94.4643 39.2578L98.9993 35.9177C98.9993 35.9177 102.496 27.9343 101.414 27.6291C99.836 27.1833 97.5138 29.2478 96.8172 31.1613C95.8952 33.7058 94.4643 39.2578 94.4643 39.2578Z" fill="#CBAB58"/>
<path d="M88.7579 41.9601L92.9788 40.0534C92.9788 40.0534 96.2537 30.2182 95.0209 29.9061C93.894 29.6215 92.0295 30.6297 90.9093 33.7949C90.4176 35.1872 88.7614 41.9601 88.7614 41.9601H88.7579Z" fill="#CBAB58"/>
<path d="M83.014 43.7467L86.866 42.351C86.866 42.351 90.1034 32.6599 89.0311 32.437C87.9588 32.2141 86.0533 33.6235 85.4898 35.3347C84.9264 37.0425 83.0106 43.7467 83.0106 43.7467H83.014Z" fill="#CBAB58"/>
<path d="M62.9648 37.2448C62.7907 37.3168 62.818 37.4848 63.0331 37.454C64.9011 37.1831 69.9552 37.1968 74.0258 34.3128C78.1887 31.3636 80.4972 25.5955 81.2997 23.3116C81.5695 22.5469 81.4943 22.5435 80.784 22.5469C78.3253 22.5572 71.1368 23.0236 67.6365 24.7485C64.102 26.4871 60.9705 31.8334 59.8948 33.6098C59.7582 33.8361 60.0075 33.9012 60.1236 33.8052C61.032 33.0611 61.9642 32.1832 63.7161 31.5522C65.468 30.9212 66.4788 30.8218 67.295 30.7737C67.7218 30.7497 68.0565 31.2333 67.9199 31.6413C67.5887 32.6427 67.0662 33.7744 65.7207 35.1084C64.3649 36.4492 63.3507 37.0871 62.9648 37.2482V37.2448Z" fill="#CBAB58"/>
<path d="M57.8458 37.8518C57.7741 37.9649 57.8766 38.1055 58.0029 38.0747C58.9591 37.8415 61.7013 37.1042 63.4293 35.9245C65.4577 34.5356 66.3456 32.7936 67.0696 31.8196C67.1652 31.6928 67.0457 31.5144 66.892 31.5556C65.7753 31.8368 63.4019 32.2449 61.411 33.692C59.8094 34.858 58.3478 37.0527 57.8424 37.8518H57.8458Z" fill="#CBAB58"/>
<path d="M69.1595 21.1478C69.1595 21.1478 72.6564 19.0182 73.4316 16.4188C73.797 15.1911 73.8756 14.423 73.8824 14.0286C73.8858 13.8503 73.7253 13.72 73.5512 13.7543C72.8921 13.8846 71.3588 14.2344 70.464 14.7865C68.5858 15.9387 66.8613 19.4126 66.8613 19.4126C66.8613 19.4126 67.5374 18.4558 68.5107 18.1232C69.0263 17.9483 69.3542 17.9414 69.624 17.9414C69.9211 17.9414 69.9859 18.0032 70.0406 18.2706C70.0884 18.5073 70.1157 18.8228 70.0747 19.2137C69.9757 20.1533 69.1561 21.1512 69.1561 21.1512L69.1595 21.1478Z" fill="#CBAB58"/>
<path d="M66.2056 22.1903C66.2056 22.228 66.2466 22.252 66.2705 22.252C66.3661 22.252 67.5545 22.0326 68.5414 20.9421C69.5283 19.8515 69.6103 18.737 69.5966 18.5724C69.5898 18.4867 69.5386 18.4558 69.4566 18.4524C69.2176 18.4524 68.1965 18.5381 67.2369 19.7041C66.2227 20.9352 66.209 22.1149 66.209 22.1937L66.2056 22.1903Z" fill="#CBAB58"/>
</g>
<defs>
<clipPath id="clip0_307_195">
<rect width="106" height="66" fill="white" transform="translate(0 0.777832)"/>
</clipPath>
</defs>
</svg>
