<svg width="26" height="22" viewBox="0 0 26 22" fill="none" xmlns="http://www.w3.org/2000/svg">
<path d="M7.81443 17.6666C8.84085 17.6666 9.67292 18.4128 9.67292 19.3332C9.67292 20.2537 8.84085 20.9999 7.81443 20.9999C6.788 20.9999 5.95593 20.2537 5.95593 19.3332C5.95593 18.4128 6.788 17.6666 7.81443 17.6666Z" stroke="#4F0336" stroke-width="2"/>
<path d="M18.9654 17.6667C19.9918 17.6667 20.8239 18.4128 20.8239 19.3333C20.8239 20.2538 19.9918 21 18.9654 21C17.939 21 17.1069 20.2538 17.1069 19.3333C17.1069 18.4128 17.939 17.6667 18.9654 17.6667Z" stroke="#4F0336" stroke-width="2"/>
<path d="M1 1L1.32364 1.10204C2.9363 1.6105 3.74264 1.86473 4.20384 2.46997C4.66505 3.07522 4.66505 3.87916 4.66505 5.48704V8.51106C4.66505 11.7795 4.7434 12.858 5.81687 13.8735C6.89033 14.8888 8.61805 14.8888 12.0735 14.8888H13.39M18.6438 14.8888C20.5779 14.8888 21.5449 14.8888 22.2285 14.3892C22.912 13.8897 23.1073 13.0404 23.4977 11.3416L24.1169 8.64745C24.547 6.71517 24.762 5.74904 24.212 5.10784C23.662 4.46664 21.7827 4.46664 19.695 4.46664H12.1801M4.66505 4.46664H7.19498" stroke="#4F0336" stroke-width="2" stroke-linecap="round"/>
</svg>
