<svg width="17" height="17" viewBox="0 0 17 17" fill="none" xmlns="http://www.w3.org/2000/svg">
<path d="M11 2.66667V6M11 6H14.3333M11 6L16 1M13.9167 16C6.78299 16 1 10.217 1 3.08333C1 2.76148 1.01177 2.44238 1.03491 2.12644C1.06146 1.76385 1.07473 1.58256 1.16975 1.41752C1.24845 1.28084 1.38792 1.15122 1.52998 1.08271C1.70151 1 1.90157 1 2.30167 1H4.64943C4.9859 1 5.15413 1 5.29835 1.05538C5.42574 1.10429 5.53918 1.18374 5.62868 1.28675C5.73001 1.40336 5.7875 1.56147 5.90249 1.87767L6.87425 4.55004C7.008 4.91794 7.07492 5.10189 7.06358 5.27642C7.05358 5.43031 7.001 5.5784 6.91183 5.70422C6.81072 5.8469 6.64288 5.94761 6.30719 6.14902L5.16667 6.83333C6.16825 9.04075 7.95842 10.8332 10.1667 11.8333L10.851 10.6928C11.0524 10.3571 11.1531 10.1892 11.2957 10.0882C11.4216 9.999 11.5697 9.94642 11.7236 9.93642C11.8981 9.92508 12.0821 9.992 12.45 10.1258L15.1223 11.0975C15.4385 11.2125 15.5967 11.27 15.7132 11.3713C15.8162 11.4608 15.8957 11.5743 15.9446 11.7017C16 11.8458 16 12.0141 16 12.3506V14.6983C16 15.0984 16 15.2985 15.9172 15.47C15.8487 15.6121 15.7192 15.7516 15.5825 15.8303C15.4174 15.9253 15.2362 15.9385 14.8736 15.9651C14.5576 15.9882 14.2385 16 13.9167 16Z" stroke="#4F0336" stroke-linecap="round" stroke-linejoin="round"/>
</svg>
