<svg width="39" height="26" viewBox="0 0 39 26" fill="none" xmlns="http://www.w3.org/2000/svg">
<path d="M10.63 17.7726H2.73193C2.13489 17.7726 1.62486 18.1985 1.52391 18.7816L0.518272 24.5789C0.389442 25.3211 0.966292 25.9995 1.72629 25.9995H11.6356C12.3956 25.9995 12.9725 25.3211 12.8436 24.5789L11.838 18.7816C11.737 18.1985 11.2265 17.7726 10.63 17.7726Z" fill="#F6C358"/>
<path d="M9.78584 17.7726H2.73193C2.13489 17.7726 1.62486 18.1985 1.52391 18.7816L0.61489 24.0201C0.45866 24.9205 1.32345 25.6627 2.20027 25.3821L8.7754 23.2759C9.10853 23.1692 9.38013 22.9263 9.52098 22.6085L10.9088 19.4766C11.2645 18.6739 10.6713 17.773 9.78633 17.773L9.78584 17.7726Z" fill="#FCD462"/>
<path d="M23.4135 17.7726H15.5149C14.9179 17.7726 14.4079 18.1985 14.3069 18.7816L13.3017 24.5789C13.1729 25.3211 13.7498 25.9995 14.5098 25.9995H24.4191C25.1791 25.9995 25.7559 25.3211 25.6271 24.5789L24.6215 18.7816C24.5205 18.1985 24.01 17.7726 23.4135 17.7726Z" fill="#F6C358"/>
<path d="M22.5693 17.7726H15.5149C14.9179 17.7726 14.4079 18.1985 14.3069 18.7816L13.3984 24.0201C13.2421 24.9205 14.1069 25.6627 14.9837 25.3821L21.5589 23.2759C21.892 23.1692 22.1636 22.9263 22.3045 22.6085L23.6923 19.4766C24.048 18.6739 23.4548 17.773 22.5698 17.773L22.5693 17.7726Z" fill="#FCD462"/>
<path d="M36.2681 17.7726H28.3696C27.7725 17.7726 27.2625 18.1985 27.1615 18.7816L26.1559 24.5789C26.0271 25.3211 26.6039 25.9995 27.3639 25.9995H37.2732C38.0332 25.9995 38.6101 25.3211 38.4813 24.5789L37.4756 18.7816C37.3747 18.1985 36.8642 17.7726 36.2676 17.7726H36.2681Z" fill="#F6C358"/>
<path d="M35.4239 17.7726H28.3695C27.7725 17.7726 27.2625 18.1985 27.1615 18.7816L26.253 24.0201C26.0968 24.9205 26.9616 25.6627 27.8384 25.3821L34.4135 23.2759C34.7466 23.1692 35.0182 22.9263 35.1591 22.6085L36.5469 19.4766C36.9026 18.6739 36.3094 17.773 35.4244 17.773L35.4239 17.7726Z" fill="#FCD462"/>
<path d="M17.0219 8.86247H9.12343C8.52639 8.86247 8.01636 9.28837 7.91541 9.87149L6.90977 15.6688C6.78094 16.411 7.35779 17.0894 8.11779 17.0894H18.0271C18.7871 17.0894 19.364 16.411 19.2351 15.6688L18.2295 9.87149C18.1285 9.28837 17.618 8.86247 17.0215 8.86247H17.0219Z" fill="#F6C358"/>
<path d="M16.1773 8.86247H9.12294C8.5259 8.86247 8.01587 9.28837 7.91492 9.87149L7.00638 15.1095C6.85015 16.0099 7.71495 16.7526 8.59176 16.4715L15.1669 14.3654C15.5 14.2587 15.7716 14.0157 15.9125 13.6979L17.3003 10.5661C17.656 9.76334 17.0628 8.86247 16.1778 8.86247H16.1773Z" fill="#FCD462"/>
<path d="M29.8766 8.86247H21.9781C21.381 8.86247 20.871 9.28837 20.77 9.87149L19.7644 15.6688C19.6356 16.411 20.2124 17.0894 20.9724 17.0894H30.8817C31.6417 17.0894 32.2186 16.411 32.0898 15.6688L31.0841 9.87149C30.9832 9.28837 30.4726 8.86247 29.8761 8.86247H29.8766Z" fill="#F6C358"/>
<path d="M29.0324 8.86247H21.9781C21.381 8.86247 20.871 9.28837 20.77 9.87149L19.8615 15.1095C19.7053 16.0099 20.5701 16.7526 21.4469 16.4715L28.022 14.3654C28.3551 14.2587 28.6267 14.0157 28.7676 13.6979L30.1554 10.5661C30.5111 9.76334 29.9179 8.86247 29.0329 8.86247H29.0324Z" fill="#FCD462"/>
<path d="M23.449 0.0476379H15.5505C14.9535 0.0476379 14.4434 0.473539 14.3425 1.05665L13.3368 6.85396C13.208 7.59619 13.7849 8.27459 14.5449 8.27459H24.4542C25.2142 8.27459 25.791 7.59619 25.6622 6.85396L24.6566 1.05665C24.5556 0.473539 24.0451 0.0476379 23.4485 0.0476379H23.449Z" fill="#F6C358"/>
<path d="M22.6049 0H15.5505C14.9535 0 14.4434 0.425902 14.3425 1.00902L13.434 6.24703C13.2777 7.14743 14.1425 7.89014 15.0193 7.60906L21.5945 5.5029C21.9276 5.39618 22.1992 5.15322 22.34 4.83546L23.7278 1.70361C24.0836 0.900872 23.4904 0 22.6054 0L22.6049 0Z" fill="#FCD462"/>
</svg>
