<svg width="26" height="22" viewBox="0 0 26 22" fill="none" xmlns="http://www.w3.org/2000/svg">
<path d="M24.4759 21H1" stroke="#4F0336" stroke-width="2" stroke-linecap="round"/>
<path d="M1 9.42111L5.76908 5.99972M24.4759 9.42111L14.9377 2.57828C13.6516 1.65563 11.8243 1.65563 10.5381 2.57828L9.62031 3.23675" stroke="#4F0336" stroke-width="2" stroke-linecap="round"/>
<path d="M16.8462 3.63158V1.52632C16.8462 1.23564 17.109 1 17.4331 1H20.3676C20.6917 1 20.9545 1.23564 20.9545 1.52632V6.78947" stroke="#4F0336" stroke-width="2" stroke-linecap="round"/>
<path d="M3.34766 21V7.8421" stroke="#4F0336" stroke-width="2" stroke-linecap="round"/>
<path d="M22.1283 7.8421V12.0526M22.1283 21V16.2632" stroke="#4F0336" stroke-width="2" stroke-linecap="round"/>
<path d="M16.2593 21V15.7369C16.2593 14.2482 16.2593 13.5039 15.7437 13.0414C15.2279 12.579 14.3979 12.579 12.7379 12.579C11.078 12.579 10.2479 12.579 9.73225 13.0414M9.21655 21V15.7369" stroke="#4F0336" stroke-width="2" stroke-linecap="round" stroke-linejoin="round"/>
<path d="M15.0856 7.84214C15.0856 9.00488 14.0345 9.9474 12.738 9.9474C11.4414 9.9474 10.3904 9.00488 10.3904 7.84214C10.3904 6.67943 11.4414 5.73688 12.738 5.73688C14.0345 5.73688 15.0856 6.67943 15.0856 7.84214Z" stroke="#4F0336" stroke-width="2"/>
</svg>
