<svg width="11" height="11" viewBox="0 0 11 11" fill="none" xmlns="http://www.w3.org/2000/svg">
<g clip-path="url(#clip0_131_456)">
<path d="M7.89717 0.424927H3.33798C1.85415 0.424927 0.647003 1.63207 0.647003 3.1159V7.67517C0.647003 9.15892 1.85415 10.3661 3.33798 10.3661H7.89725C9.381 10.3661 10.5881 9.15892 10.5881 7.67517V3.1159C10.5881 1.63207 9.381 0.424927 7.89717 0.424927V0.424927ZM10.0054 7.67517C10.0054 8.83757 9.05965 9.78328 7.89717 9.78328H3.33798C2.17551 9.78328 1.2298 8.83757 1.2298 7.67517V3.1159C1.2298 1.95343 2.17551 1.00772 3.33798 1.00772H7.89725C9.05965 1.00772 10.0054 1.95343 10.0054 3.1159V7.67517Z" fill="black"/>
<path d="M5.61757 2.67725C4.11873 2.67725 2.89937 3.8966 2.89937 5.39545C2.89937 6.8943 4.11873 8.11366 5.61757 8.11366C7.11642 8.11366 8.33578 6.8943 8.33578 5.39545C8.33578 3.8966 7.11642 2.67725 5.61757 2.67725ZM5.61757 7.53086C4.44016 7.53086 3.48216 6.57294 3.48216 5.39545C3.48216 4.21804 4.44016 3.26004 5.61757 3.26004C6.79507 3.26004 7.75299 4.21804 7.75299 5.39545C7.75299 6.57294 6.79507 7.53086 5.61757 7.53086Z" fill="black"/>
<path d="M8.40078 1.71191C7.95784 1.71191 7.59758 2.07225 7.59758 2.51511C7.59758 2.95805 7.95784 3.31838 8.40078 3.31838C8.84371 3.31838 9.20405 2.95805 9.20405 2.51511C9.20405 2.07218 8.84371 1.71191 8.40078 1.71191ZM8.40078 2.73552C8.27927 2.73552 8.18037 2.63662 8.18037 2.51511C8.18037 2.39353 8.27927 2.29471 8.40078 2.29471C8.52236 2.29471 8.62126 2.39353 8.62126 2.51511C8.62126 2.63662 8.52236 2.73552 8.40078 2.73552Z" fill="black"/>
</g>
<defs>
<clipPath id="clip0_131_456">
<rect width="9.94116" height="9.94116" fill="white" transform="translate(0.647003 0.424927)"/>
</clipPath>
</defs>
</svg>
