<svg width="16" height="20" viewBox="0 0 16 20" fill="none" xmlns="http://www.w3.org/2000/svg">
<path d="M11.2622 2.10078H4.83846L5.9828 0.75H10.1178L11.2622 2.10078ZM10.7661 5.02617L8.05031 7.2301L5.33453 5.02617H10.7661ZM0.75 12.8285C0.75 11.093 1.62467 9.46149 3.01338 8.26749L3.66054 8.79397C2.43613 9.84476 1.56447 11.3057 1.56447 12.8285C1.56447 14.3238 2.39304 15.7497 3.55515 16.7773C4.72522 17.812 6.31827 18.5228 8 18.5228C9.68068 18.5228 11.285 17.8129 12.4667 16.7802C13.6398 15.7551 14.4858 14.3287 14.4858 12.8285C14.4858 11.3224 13.6441 9.85657 12.4351 8.79949L13.0334 8.31396C14.3986 9.50273 15.25 11.1085 15.25 12.8285C15.25 16.2488 11.9067 19.25 8 19.25C4.09332 19.25 0.75 16.2488 0.75 12.8285Z" stroke="#4F0336" stroke-width="1.5"/>
</svg>
