<svg width="9" height="9" viewBox="0 0 9 9" fill="none" xmlns="http://www.w3.org/2000/svg">
<g clip-path="url(#clip0_131_470)">
<path d="M8.52713 8.60138V8.60103H8.52924V5.51602C8.52924 4.00681 8.20433 2.84424 6.43997 2.84424C5.59178 2.84424 5.02259 3.30969 4.79021 3.75096H4.76568V2.98514H3.09279V8.60103H4.83472V5.82025C4.83472 5.08807 4.97352 4.38008 5.88023 4.38008C6.77363 4.38008 6.78695 5.21565 6.78695 5.86721V8.60138H8.52713Z" fill="black"/>
<path d="M0.256271 2.98547H2.00031V8.60137H0.256271V2.98547Z" fill="black"/>
<path d="M1.12759 0.189575C0.56996 0.189575 0.117477 0.642057 0.117477 1.19969C0.117477 1.75732 0.56996 2.21926 1.12759 2.21926C1.68522 2.21926 2.1377 1.75732 2.1377 1.19969C2.13735 0.642057 1.68487 0.189575 1.12759 0.189575V0.189575Z" fill="black"/>
</g>
<defs>
<clipPath id="clip0_131_470">
<rect width="8.41175" height="8.41175" fill="white" transform="translate(0.117477 0.189575)"/>
</clipPath>
</defs>
</svg>
