<svg width="15" height="15" viewBox="0 0 15 15" fill="none" xmlns="http://www.w3.org/2000/svg">
<path d="M9.55475 3.65503e-07C8.60069 -1.35879e-05 7.83158 -2.7508e-05 7.22677 0.0812927C6.5988 0.165724 6.07002 0.346344 5.65009 0.766284C5.28385 1.13251 5.0988 1.58256 5.00167 2.11139C4.90728 2.62526 4.88922 3.25413 4.88502 4.00868C4.88341 4.29766 5.11637 4.53322 5.40535 4.53483C5.69433 4.53645 5.9299 4.30348 5.93151 4.01451C5.93575 3.25161 5.95557 2.71086 6.03095 2.30046C6.10359 1.90501 6.22024 1.67612 6.39005 1.50627C6.58317 1.31319 6.85428 1.18729 7.36616 1.11847C7.89318 1.04761 8.59162 1.0465 9.59305 1.0465H10.2907C11.2921 1.0465 11.9906 1.04761 12.5176 1.11847C13.0296 1.18729 13.3006 1.31319 13.4937 1.50627C13.6868 1.69936 13.8127 1.97046 13.8815 2.48239C13.9524 3.00937 13.9535 3.70782 13.9535 4.70926V10.2906C13.9535 11.292 13.9524 11.9905 13.8815 12.5175C13.8127 13.0294 13.6868 13.3005 13.4937 13.4936C13.3006 13.6867 13.0296 13.8126 12.5176 13.8814C11.9906 13.9522 11.2921 13.9534 10.2907 13.9534H9.59305C8.59162 13.9534 7.89318 13.9522 7.36616 13.8814C6.85428 13.8126 6.58317 13.6867 6.39005 13.4936C6.22024 13.3237 6.10359 13.0949 6.03095 12.6994C5.95557 12.289 5.93575 11.7482 5.93151 10.9853C5.9299 10.6964 5.69433 10.4634 5.40535 10.465C5.11637 10.4666 4.88341 10.7022 4.88502 10.9912C4.88922 11.7457 4.90728 12.3746 5.00167 12.8884C5.0988 13.4173 5.28385 13.8673 5.65009 14.2336C6.07002 14.6535 6.5988 14.8342 7.22677 14.9186C7.83158 14.9999 8.60069 14.9999 9.55475 14.9999H10.329C11.2831 14.9999 12.0522 14.9999 12.6571 14.9186C13.285 14.8342 13.8137 14.6535 14.2337 14.2336C14.6537 13.8136 14.8343 13.2849 14.9187 12.6569C15 12.0521 15 11.283 15 10.3289V4.67098C15 3.71685 15 2.9478 14.9187 2.34294C14.8343 1.71497 14.6537 1.18622 14.2337 0.766284C13.8137 0.346344 13.285 0.165724 12.6571 0.0812927C12.0522 -2.7508e-05 11.2831 -1.35879e-05 10.329 3.65503e-07H9.55475Z" fill="#4F0336"/>
<path d="M9.59293 6.97667C9.88191 6.97667 10.1162 7.21095 10.1162 7.49992C10.1162 7.7889 9.88191 8.02317 9.59293 8.02317H1.93773L3.30561 9.19567C3.52503 9.3837 3.55044 9.71404 3.36237 9.93346C3.17431 10.1529 2.84397 10.1783 2.62456 9.99018L0.182726 7.89718C0.0667459 7.79783 0 7.65264 0 7.49992C0 7.3472 0.0667459 7.20202 0.182726 7.10267L2.62456 5.00964C2.84397 4.82157 3.17431 4.84698 3.36237 5.0664C3.55044 5.2858 3.52503 5.61614 3.30561 5.8042L1.93773 6.97667H9.59293Z" fill="#4F0336"/>
</svg>
