<svg width="345" height="136" viewBox="0 0 345 136" fill="none" xmlns="http://www.w3.org/2000/svg">
<rect y="0.856445" width="345" height="135" rx="15" fill="#F2EEE5"/>
<path d="M85.3751 27.8846C84.6991 27.2589 83.5392 27.2056 82.7839 27.7655C82.0286 28.3255 81.9642 29.2863 82.6402 29.912L85.3751 27.8846ZM82.6402 58.2851C81.9642 58.9108 82.0286 59.8716 82.7839 60.4316C83.5392 60.9915 84.6991 60.9382 85.3751 60.3126L82.6402 58.2851ZM75.7115 53.3005C75.0294 53.9216 75.0845 54.8829 75.8343 55.4479C76.5841 56.0129 77.7446 55.9673 78.4266 55.3462L75.7115 53.3005ZM78.4266 32.8509C77.7446 32.2298 76.5841 32.1842 75.8343 32.7492C75.0845 33.3142 75.0294 34.2755 75.7115 34.8966L78.4266 32.8509ZM82.6402 29.912C86.709 33.6777 89.1814 38.6472 89.1814 44.0983H92.8516C92.8516 37.8702 90.0231 32.1861 85.3751 27.8846L82.6402 29.912ZM89.1814 44.0983C89.1814 49.5494 86.709 54.519 82.6402 58.2847L85.3751 60.3121C90.0231 56.0106 92.8516 50.326 92.8516 44.0983H89.1814ZM80.006 44.0983C80.006 47.6429 78.3809 50.8696 75.7115 53.3005L78.4266 55.3462C81.6867 52.3776 83.6763 48.4286 83.6763 44.0983H80.006ZM75.7121 34.8966C78.3815 37.3275 80.0066 40.5542 80.0066 44.0988H83.6768C83.6768 39.7685 81.6873 35.82 78.4272 32.8509L75.7121 34.8966Z" fill="#4F0336"/>
<path fill-rule="evenodd" clip-rule="evenodd" d="M45.9151 37.5103H18.8734C16.3828 37.5103 14.3655 39.4084 14.3655 41.7498C14.3655 45.4441 14.3655 50.7744 14.3655 54.4686C14.3655 56.8101 16.3828 58.7083 18.8734 58.7083C27.5904 58.7083 45.9151 58.7083 45.9151 58.7083V37.5103Z" fill="#4F0336" fill-opacity="0.2"/>
<path fill-rule="evenodd" clip-rule="evenodd" d="M68.4504 33.7708C68.4504 32.3018 67.6415 30.9367 66.3125 30.1651C64.9846 29.3913 63.3251 29.3214 61.928 29.9785C55.2719 33.1095 45.9148 37.5102 45.9148 37.5102V58.7082C45.9148 58.7082 55.2719 63.1089 61.928 66.2398C63.3251 66.897 64.9846 66.827 66.3125 66.0533C67.6415 65.2817 68.4504 63.9165 68.4504 62.4475C68.4504 54.5534 68.4504 41.665 68.4504 33.7708Z" fill="#4F0336" fill-opacity="0.2"/>
<path fill-rule="evenodd" clip-rule="evenodd" d="M24.1634 59.8566C22.3836 64.3197 20.1393 68.2817 17.1892 71.477C16.6856 71.9989 16.3801 72.6656 16.3594 73.2842C16.3394 73.903 16.6063 74.4064 17.0838 74.6475C18.0369 75.1658 19.1586 75.7321 19.9986 76.1561C20.7473 76.5356 21.8345 76.2015 22.5966 75.3593C26.8408 70.6052 30.4601 65.1763 33.4761 59.0942" fill="#4F0336" fill-opacity="0.2"/>
<path fill-rule="evenodd" clip-rule="evenodd" d="M45.3832 35.3902H18.8725C15.1383 35.3902 12.1118 38.2371 12.1118 41.7496V54.4685C12.1118 57.981 15.1383 60.8279 18.8725 60.8279H20.1254C19.0708 64.0457 17.5902 66.8566 15.4651 69.0718C14.5073 70.0257 14.0747 71.3039 14.264 72.5737C14.4533 73.8455 15.251 74.9649 16.4274 75.6156C17.6263 76.3003 19.028 77.0613 20.0781 77.6315C21.9328 78.6406 24.2877 78.2802 25.7075 76.7709L25.7165 76.7624C29.8315 72.2981 33.0698 67.0177 35.4496 60.9338C35.4631 60.8999 35.4766 60.8639 35.4879 60.8279H45.2908L60.4662 69.3919C62.553 70.5705 65.1558 70.6023 67.2742 69.4724C69.3947 68.3447 70.7041 66.2291 70.7041 63.9397V33.7707C70.7041 31.5661 69.4917 29.5205 67.4973 28.361C65.5051 27.2015 63.015 27.0976 60.9192 28.0833L45.3832 35.3902ZM24.8196 60.8279C23.5373 65.2265 21.6015 69.023 18.7463 71.9801L18.7553 71.9844C19.9294 72.6564 21.3018 73.4026 22.3317 73.9622C25.7841 70.2144 28.5515 65.8285 30.6675 60.8279H24.8196ZM48.1686 57.5082V38.8201L62.9361 31.8756C63.6347 31.547 64.464 31.5809 65.1288 31.9668C65.7936 32.3547 66.197 33.0351 66.197 33.7707V63.9397C66.197 64.7028 65.7598 65.4067 65.0544 65.784C64.3468 66.1592 63.4792 66.1486 62.7851 65.7564L48.1686 57.5082ZM43.6615 39.6298V56.5883H18.8725C17.6285 56.5883 16.6189 55.6386 16.6189 54.4685V41.7496C16.6189 40.5795 17.6285 39.6298 18.8725 39.6298H43.6615Z" fill="#4F0336"/>
<path d="M117.666 40.4404V50.3935H115.622V40.4404H117.666ZM120.729 40.4404V42.0469H112.608V40.4404H120.729ZM123.196 39.8935V50.3935H121.227V39.8935H123.196ZM122.915 46.4355H122.375C122.38 45.9206 122.448 45.4466 122.58 45.0137C122.712 44.5762 122.902 44.1979 123.148 43.8789C123.394 43.5553 123.688 43.3047 124.03 43.1269C124.376 42.9492 124.759 42.8603 125.178 42.8603C125.543 42.8603 125.873 42.9127 126.169 43.0176C126.47 43.1178 126.727 43.2819 126.942 43.5098C127.16 43.7331 127.329 44.027 127.448 44.3916C127.566 44.7562 127.625 45.1982 127.625 45.7178V50.3935H125.643V45.7041C125.643 45.376 125.595 45.1185 125.499 44.9316C125.408 44.7402 125.274 44.6058 125.096 44.5283C124.923 44.4463 124.709 44.4053 124.453 44.4053C124.171 44.4053 123.929 44.4577 123.729 44.5625C123.533 44.6673 123.376 44.8131 123.257 45C123.139 45.1823 123.052 45.3965 122.997 45.6426C122.943 45.8887 122.915 46.153 122.915 46.4355ZM132.027 50.5303C131.452 50.5303 130.937 50.4391 130.482 50.2568C130.026 50.07 129.639 49.8125 129.32 49.4844C129.005 49.1562 128.764 48.7757 128.595 48.3428C128.426 47.9053 128.342 47.4404 128.342 46.9482V46.6748C128.342 46.1142 128.422 45.6015 128.581 45.1367C128.741 44.6719 128.969 44.2685 129.265 43.9267C129.566 43.5849 129.93 43.3229 130.359 43.1406C130.787 42.9538 131.27 42.8603 131.808 42.8603C132.332 42.8603 132.797 42.9469 133.202 43.1201C133.608 43.2933 133.948 43.5394 134.221 43.8584C134.499 44.1774 134.709 44.5602 134.85 45.0068C134.991 45.4489 135.062 45.9411 135.062 46.4834V47.3037H129.183V45.9912H133.127V45.8408C133.127 45.5674 133.077 45.3236 132.977 45.1094C132.881 44.8906 132.735 44.7174 132.539 44.5898C132.343 44.4622 132.093 44.3984 131.787 44.3984C131.528 44.3984 131.304 44.4554 131.117 44.5693C130.931 44.6833 130.778 44.8428 130.659 45.0478C130.545 45.2529 130.459 45.4945 130.4 45.7724C130.345 46.0459 130.318 46.3467 130.318 46.6748V46.9482C130.318 47.2445 130.359 47.5179 130.441 47.7685C130.527 48.0192 130.648 48.2357 130.803 48.418C130.962 48.6002 131.154 48.7415 131.377 48.8418C131.605 48.942 131.863 48.9922 132.15 48.9922C132.505 48.9922 132.836 48.9238 133.141 48.7871C133.451 48.6458 133.717 48.4339 133.941 48.1514L134.898 49.1904C134.743 49.4137 134.531 49.6279 134.262 49.833C133.998 50.0381 133.679 50.2067 133.305 50.3389C132.931 50.4665 132.505 50.5303 132.027 50.5303ZM141.178 50.3935H139.196V42.3408C139.196 41.7803 139.305 41.3086 139.524 40.9258C139.747 40.5384 140.059 40.2467 140.46 40.0508C140.866 39.8502 141.347 39.75 141.903 39.75C142.085 39.75 142.26 39.7637 142.429 39.791C142.598 39.8138 142.762 39.8434 142.921 39.8799L142.901 41.3633C142.814 41.3405 142.723 41.3245 142.627 41.3154C142.531 41.3063 142.42 41.3017 142.292 41.3017C142.055 41.3017 141.852 41.3428 141.684 41.4248C141.52 41.5023 141.394 41.6185 141.308 41.7734C141.221 41.9284 141.178 42.1175 141.178 42.3408V50.3935ZM142.655 42.9971V44.3916H138.095V42.9971H142.655ZM145.265 42.9971V50.3935H143.289V42.9971H145.265ZM143.166 41.0693C143.166 40.7822 143.267 40.5452 143.467 40.3584C143.668 40.1715 143.936 40.0781 144.274 40.0781C144.606 40.0781 144.873 40.1715 145.073 40.3584C145.279 40.5452 145.381 40.7822 145.381 41.0693C145.381 41.3564 145.279 41.5934 145.073 41.7803C144.873 41.9671 144.606 42.0605 144.274 42.0605C143.936 42.0605 143.668 41.9671 143.467 41.7803C143.267 41.5934 143.166 41.3564 143.166 41.0693ZM148.32 44.5762V50.3935H146.351V42.9971H148.197L148.32 44.5762ZM148.032 46.4355H147.499C147.499 45.8887 147.57 45.3965 147.711 44.959C147.852 44.5169 148.051 44.1409 148.306 43.831C148.561 43.5166 148.864 43.2773 149.215 43.1133C149.571 42.9446 149.967 42.8603 150.405 42.8603C150.751 42.8603 151.068 42.9105 151.355 43.0107C151.642 43.111 151.888 43.2705 152.093 43.4892C152.303 43.708 152.462 43.9974 152.572 44.3574C152.685 44.7174 152.742 45.1572 152.742 45.6767V50.3935H150.76V45.6699C150.76 45.3418 150.714 45.0866 150.623 44.9043C150.532 44.722 150.398 44.5944 150.22 44.5215C150.047 44.444 149.833 44.4053 149.577 44.4053C149.313 44.4053 149.083 44.4577 148.887 44.5625C148.696 44.6673 148.536 44.8131 148.408 45C148.285 45.1823 148.192 45.3965 148.128 45.6426C148.064 45.8887 148.032 46.153 148.032 46.4355ZM157.144 50.5303C156.57 50.5303 156.055 50.4391 155.599 50.2568C155.143 50.07 154.756 49.8125 154.437 49.4844C154.122 49.1562 153.881 48.7757 153.712 48.3428C153.544 47.9053 153.459 47.4404 153.459 46.9482V46.6748C153.459 46.1142 153.539 45.6015 153.698 45.1367C153.858 44.6719 154.086 44.2685 154.382 43.9267C154.683 43.5849 155.047 43.3229 155.476 43.1406C155.904 42.9538 156.387 42.8603 156.925 42.8603C157.449 42.8603 157.914 42.9469 158.32 43.1201C158.725 43.2933 159.065 43.5394 159.338 43.8584C159.616 44.1774 159.826 44.5602 159.967 45.0068C160.108 45.4489 160.179 45.9411 160.179 46.4834V47.3037H154.3V45.9912H158.244V45.8408C158.244 45.5674 158.194 45.3236 158.094 45.1094C157.998 44.8906 157.852 44.7174 157.656 44.5898C157.461 44.4622 157.21 44.3984 156.905 44.3984C156.645 44.3984 156.421 44.4554 156.235 44.5693C156.048 44.6833 155.895 44.8428 155.777 45.0478C155.663 45.2529 155.576 45.4945 155.517 45.7724C155.462 46.0459 155.435 46.3467 155.435 46.6748V46.9482C155.435 47.2445 155.476 47.5179 155.558 47.7685C155.644 48.0192 155.765 48.2357 155.92 48.418C156.08 48.6002 156.271 48.7415 156.494 48.8418C156.722 48.942 156.98 48.9922 157.267 48.9922C157.622 48.9922 157.953 48.9238 158.258 48.7871C158.568 48.6458 158.835 48.4339 159.058 48.1514L160.015 49.1904C159.86 49.4137 159.648 49.6279 159.379 49.833C159.115 50.0381 158.796 50.2067 158.422 50.3389C158.048 50.4665 157.622 50.5303 157.144 50.5303ZM164.799 48.3496C164.799 48.2083 164.758 48.0807 164.676 47.9668C164.594 47.8528 164.441 47.748 164.218 47.6523C163.999 47.5521 163.683 47.4609 163.268 47.3789C162.894 47.2969 162.545 47.1943 162.222 47.0713C161.903 46.9437 161.625 46.791 161.388 46.6133C161.156 46.4355 160.973 46.2259 160.841 45.9844C160.709 45.7383 160.643 45.458 160.643 45.1435C160.643 44.8336 160.709 44.542 160.841 44.2685C160.978 43.9951 161.171 43.7536 161.422 43.5439C161.677 43.3297 161.987 43.1634 162.352 43.0449C162.721 42.9219 163.136 42.8603 163.596 42.8603C164.239 42.8603 164.79 42.9629 165.25 43.168C165.715 43.373 166.071 43.6556 166.317 44.0156C166.567 44.3711 166.693 44.7767 166.693 45.2324H164.724C164.724 45.041 164.683 44.8701 164.601 44.7197C164.523 44.5648 164.4 44.444 164.232 44.3574C164.068 44.2663 163.853 44.2207 163.589 44.2207C163.37 44.2207 163.181 44.2594 163.022 44.3369C162.862 44.4098 162.739 44.5101 162.653 44.6377C162.571 44.7607 162.53 44.8974 162.53 45.0478C162.53 45.1618 162.552 45.2643 162.598 45.3555C162.648 45.442 162.728 45.5218 162.837 45.5947C162.947 45.6676 163.088 45.736 163.261 45.7998C163.439 45.859 163.657 45.9137 163.917 45.9639C164.45 46.0732 164.927 46.2168 165.346 46.3945C165.765 46.5677 166.098 46.8047 166.344 47.1055C166.59 47.4017 166.713 47.7913 166.713 48.2744C166.713 48.6025 166.64 48.9033 166.494 49.1767C166.349 49.4502 166.139 49.6894 165.865 49.8945C165.592 50.095 165.264 50.2523 164.881 50.3662C164.503 50.4756 164.077 50.5303 163.603 50.5303C162.915 50.5303 162.331 50.4072 161.853 50.1611C161.379 49.915 161.019 49.6028 160.773 49.2246C160.531 48.8418 160.41 48.4499 160.41 48.0488H162.277C162.286 48.3177 162.354 48.5342 162.482 48.6982C162.614 48.8623 162.78 48.9808 162.981 49.0537C163.186 49.1266 163.407 49.1631 163.644 49.1631C163.899 49.1631 164.111 49.1289 164.28 49.0605C164.448 48.9876 164.576 48.8919 164.662 48.7734C164.753 48.6504 164.799 48.5091 164.799 48.3496ZM171.115 42.9971V44.3916H166.808V42.9971H171.115ZM167.874 41.1719H169.843V48.165C169.843 48.3792 169.87 48.5433 169.925 48.6572C169.984 48.7711 170.071 48.8509 170.185 48.8965C170.299 48.9375 170.442 48.958 170.615 48.958C170.739 48.958 170.848 48.9534 170.944 48.9443C171.044 48.9306 171.128 48.917 171.197 48.9033L171.203 50.3525C171.035 50.4072 170.852 50.4505 170.656 50.4824C170.461 50.5143 170.244 50.5303 170.007 50.5303C169.574 50.5303 169.196 50.4596 168.872 50.3183C168.553 50.1725 168.307 49.9401 168.134 49.6211C167.961 49.3021 167.874 48.8828 167.874 48.3633V41.1719ZM179.405 42.9971H181.189V50.1474C181.189 50.8219 181.038 51.3939 180.738 51.8633C180.441 52.3372 180.027 52.695 179.493 52.9365C178.96 53.1826 178.34 53.3056 177.634 53.3056C177.324 53.3056 176.996 53.2646 176.65 53.1826C176.308 53.1006 175.98 52.973 175.665 52.7998C175.355 52.6266 175.096 52.4079 174.886 52.1435L175.754 50.9814C175.982 51.2458 176.246 51.4508 176.547 51.5967C176.848 51.7471 177.181 51.8223 177.545 51.8223C177.901 51.8223 178.201 51.7562 178.448 51.624C178.694 51.4964 178.883 51.3073 179.015 51.0566C179.147 50.8105 179.213 50.512 179.213 50.1611V44.706L179.405 42.9971ZM174.428 46.7842V46.6406C174.428 46.0755 174.496 45.5628 174.633 45.1025C174.774 44.6377 174.973 44.2389 175.228 43.9062C175.488 43.5736 175.802 43.3161 176.171 43.1338C176.54 42.9515 176.957 42.8603 177.422 42.8603C177.914 42.8603 178.327 42.9515 178.659 43.1338C178.992 43.3161 179.266 43.5758 179.48 43.9131C179.694 44.2458 179.86 44.64 179.979 45.0957C180.102 45.5469 180.198 46.0413 180.266 46.5791V46.8935C180.198 47.4085 180.095 47.887 179.958 48.3291C179.822 48.7711 179.642 49.1585 179.418 49.4912C179.195 49.8193 178.917 50.0745 178.584 50.2568C178.256 50.4391 177.864 50.5303 177.408 50.5303C176.953 50.5303 176.54 50.4368 176.171 50.25C175.807 50.0631 175.494 49.8011 175.235 49.4639C174.975 49.1266 174.774 48.7301 174.633 48.2744C174.496 47.8187 174.428 47.3219 174.428 46.7842ZM176.397 46.6406V46.7842C176.397 47.0895 176.426 47.3743 176.486 47.6387C176.545 47.903 176.636 48.1377 176.759 48.3428C176.887 48.5433 177.044 48.7005 177.231 48.8144C177.422 48.9238 177.648 48.9785 177.907 48.9785C178.267 48.9785 178.561 48.9033 178.789 48.7529C179.017 48.598 179.188 48.3861 179.302 48.1172C179.416 47.8483 179.482 47.5384 179.5 47.1875V46.292C179.491 46.0049 179.452 45.7474 179.384 45.5195C179.316 45.2871 179.22 45.0889 179.097 44.9248C178.974 44.7607 178.814 44.6331 178.618 44.542C178.422 44.4508 178.19 44.4053 177.921 44.4053C177.661 44.4053 177.436 44.4645 177.244 44.583C177.058 44.6969 176.9 44.8542 176.773 45.0547C176.65 45.2552 176.556 45.4922 176.492 45.7656C176.429 46.0345 176.397 46.3262 176.397 46.6406ZM181.906 46.7705V46.6269C181.906 46.0846 181.983 45.5856 182.138 45.1299C182.293 44.6696 182.518 44.2708 182.815 43.9336C183.111 43.5963 183.476 43.3343 183.908 43.1474C184.341 42.956 184.838 42.8603 185.399 42.8603C185.959 42.8603 186.458 42.956 186.896 43.1474C187.333 43.3343 187.7 43.5963 187.996 43.9336C188.297 44.2708 188.525 44.6696 188.68 45.1299C188.835 45.5856 188.912 46.0846 188.912 46.6269V46.7705C188.912 47.3083 188.835 47.8073 188.68 48.2676C188.525 48.7233 188.297 49.1221 187.996 49.4639C187.7 49.8011 187.336 50.0631 186.903 50.25C186.47 50.4368 185.973 50.5303 185.412 50.5303C184.852 50.5303 184.353 50.4368 183.915 50.25C183.482 50.0631 183.115 49.8011 182.815 49.4639C182.518 49.1221 182.293 48.7233 182.138 48.2676C181.983 47.8073 181.906 47.3083 181.906 46.7705ZM183.874 46.6269V46.7705C183.874 47.0804 183.902 47.3698 183.956 47.6387C184.011 47.9075 184.098 48.1445 184.216 48.3496C184.339 48.5501 184.499 48.7073 184.695 48.8213C184.891 48.9352 185.13 48.9922 185.412 48.9922C185.686 48.9922 185.92 48.9352 186.116 48.8213C186.312 48.7073 186.47 48.5501 186.588 48.3496C186.707 48.1445 186.793 47.9075 186.848 47.6387C186.907 47.3698 186.937 47.0804 186.937 46.7705V46.6269C186.937 46.3262 186.907 46.0436 186.848 45.7793C186.793 45.5104 186.704 45.2734 186.581 45.0683C186.463 44.8587 186.306 44.6946 186.11 44.5762C185.914 44.4577 185.677 44.3984 185.399 44.3984C185.121 44.3984 184.884 44.4577 184.688 44.5762C184.496 44.6946 184.339 44.8587 184.216 45.0683C184.098 45.2734 184.011 45.5104 183.956 45.7793C183.902 46.0436 183.874 46.3262 183.874 46.6269ZM191.7 39.8935V50.3935H189.725V39.8935H191.7ZM197.196 48.7803V39.8935H199.178V50.3935H197.394L197.196 48.7803ZM192.52 46.7842V46.6406C192.52 46.0755 192.584 45.5628 192.711 45.1025C192.839 44.6377 193.026 44.2389 193.272 43.9062C193.518 43.5736 193.821 43.3161 194.181 43.1338C194.541 42.9515 194.951 42.8603 195.411 42.8603C195.844 42.8603 196.223 42.9515 196.546 43.1338C196.874 43.3161 197.152 43.5758 197.38 43.9131C197.613 44.2458 197.799 44.64 197.941 45.0957C198.082 45.5469 198.184 46.0413 198.248 46.5791V46.8935C198.184 47.4085 198.082 47.887 197.941 48.3291C197.799 48.7711 197.613 49.1585 197.38 49.4912C197.152 49.8193 196.874 50.0745 196.546 50.2568C196.218 50.4391 195.835 50.5303 195.398 50.5303C194.937 50.5303 194.527 50.4368 194.167 50.25C193.812 50.0631 193.511 49.8011 193.265 49.4639C193.023 49.1266 192.839 48.7301 192.711 48.2744C192.584 47.8187 192.52 47.3219 192.52 46.7842ZM194.489 46.6406V46.7842C194.489 47.0895 194.511 47.3743 194.557 47.6387C194.607 47.903 194.687 48.1377 194.796 48.3428C194.91 48.5433 195.056 48.7005 195.234 48.8144C195.416 48.9238 195.637 48.9785 195.897 48.9785C196.234 48.9785 196.512 48.9033 196.731 48.7529C196.949 48.598 197.116 48.3861 197.23 48.1172C197.348 47.8483 197.417 47.5384 197.435 47.1875V46.292C197.421 46.0049 197.38 45.7474 197.312 45.5195C197.248 45.2871 197.152 45.0889 197.025 44.9248C196.902 44.7607 196.747 44.6331 196.56 44.542C196.378 44.4508 196.161 44.4053 195.91 44.4053C195.655 44.4053 195.436 44.4645 195.254 44.583C195.072 44.6969 194.924 44.8542 194.81 45.0547C194.7 45.2552 194.618 45.4922 194.564 45.7656C194.514 46.0345 194.489 46.3262 194.489 46.6406ZM203.312 42.9971H205.287V50.8379C205.287 51.3848 205.187 51.8473 204.987 52.2256C204.786 52.6038 204.497 52.8909 204.118 53.0869C203.74 53.2829 203.282 53.3808 202.744 53.3808C202.576 53.3808 202.412 53.3717 202.252 53.3535C202.088 53.3353 201.92 53.3056 201.746 53.2646L201.753 51.7539C201.863 51.7721 201.97 51.7858 202.074 51.7949C202.175 51.8086 202.277 51.8154 202.382 51.8154C202.587 51.8154 202.758 51.7812 202.895 51.7129C203.031 51.6445 203.134 51.5374 203.202 51.3916C203.275 51.2503 203.312 51.0657 203.312 50.8379V42.9971ZM203.155 41.0693C203.155 40.7822 203.255 40.5452 203.455 40.3584C203.66 40.1715 203.929 40.0781 204.262 40.0781C204.599 40.0781 204.868 40.1715 205.069 40.3584C205.269 40.5452 205.369 40.7822 205.369 41.0693C205.369 41.3564 205.269 41.5934 205.069 41.7803C204.868 41.9671 204.599 42.0605 204.262 42.0605C203.929 42.0605 203.66 41.9671 203.455 41.7803C203.255 41.5934 203.155 41.3564 203.155 41.0693ZM209.757 50.5303C209.183 50.5303 208.668 50.4391 208.212 50.2568C207.756 50.07 207.369 49.8125 207.05 49.4844C206.736 49.1562 206.494 48.7757 206.325 48.3428C206.157 47.9053 206.073 47.4404 206.073 46.9482V46.6748C206.073 46.1142 206.152 45.6015 206.312 45.1367C206.471 44.6719 206.699 44.2685 206.995 43.9267C207.296 43.5849 207.661 43.3229 208.089 43.1406C208.517 42.9538 209.001 42.8603 209.538 42.8603C210.062 42.8603 210.527 42.9469 210.933 43.1201C211.338 43.2933 211.678 43.5394 211.951 43.8584C212.229 44.1774 212.439 44.5602 212.58 45.0068C212.722 45.4489 212.792 45.9411 212.792 46.4834V47.3037H206.913V45.9912H210.858V45.8408C210.858 45.5674 210.808 45.3236 210.707 45.1094C210.612 44.8906 210.466 44.7174 210.27 44.5898C210.074 44.4622 209.823 44.3984 209.518 44.3984C209.258 44.3984 209.035 44.4554 208.848 44.5693C208.661 44.6833 208.508 44.8428 208.39 45.0478C208.276 45.2529 208.189 45.4945 208.13 45.7724C208.075 46.0459 208.048 46.3467 208.048 46.6748V46.9482C208.048 47.2445 208.089 47.5179 208.171 47.7685C208.258 48.0192 208.378 48.2357 208.533 48.418C208.693 48.6002 208.884 48.7415 209.108 48.8418C209.336 48.942 209.593 48.9922 209.88 48.9922C210.236 48.9922 210.566 48.9238 210.871 48.7871C211.181 48.6458 211.448 48.4339 211.671 48.1514L212.628 49.1904C212.473 49.4137 212.261 49.6279 211.992 49.833C211.728 50.0381 211.409 50.2067 211.035 50.3389C210.662 50.4665 210.236 50.5303 209.757 50.5303ZM215.526 48.4795L217.064 42.9971H218.315L217.911 45.1504L216.373 50.3935H215.327L215.526 48.4795ZM214.746 42.9971L215.847 48.4726L215.949 50.3935H214.719L212.846 42.9971H214.746ZM219.723 48.3838L220.796 42.9971H222.703L220.83 50.3935H219.607L219.723 48.3838ZM218.486 42.9971L220.017 48.4385L220.229 50.3935H219.176L217.638 45.1572L217.248 42.9971H218.486ZM226.599 50.5303C226.025 50.5303 225.51 50.4391 225.054 50.2568C224.598 50.07 224.211 49.8125 223.892 49.4844C223.577 49.1562 223.336 48.7757 223.167 48.3428C222.999 47.9053 222.914 47.4404 222.914 46.9482V46.6748C222.914 46.1142 222.994 45.6015 223.154 45.1367C223.313 44.6719 223.541 44.2685 223.837 43.9267C224.138 43.5849 224.503 43.3229 224.931 43.1406C225.359 42.9538 225.842 42.8603 226.38 42.8603C226.904 42.8603 227.369 42.9469 227.775 43.1201C228.18 43.2933 228.52 43.5394 228.793 43.8584C229.071 44.1774 229.281 44.5602 229.422 45.0068C229.563 45.4489 229.634 45.9411 229.634 46.4834V47.3037H223.755V45.9912H227.699V45.8408C227.699 45.5674 227.649 45.3236 227.549 45.1094C227.453 44.8906 227.308 44.7174 227.112 44.5898C226.916 44.4622 226.665 44.3984 226.36 44.3984C226.1 44.3984 225.877 44.4554 225.69 44.5693C225.503 44.6833 225.35 44.8428 225.232 45.0478C225.118 45.2529 225.031 45.4945 224.972 45.7724C224.917 46.0459 224.89 46.3467 224.89 46.6748V46.9482C224.89 47.2445 224.931 47.5179 225.013 47.7685C225.1 48.0192 225.22 48.2357 225.375 48.418C225.535 48.6002 225.726 48.7415 225.949 48.8418C226.177 48.942 226.435 48.9922 226.722 48.9922C227.077 48.9922 227.408 48.9238 227.713 48.7871C228.023 48.6458 228.29 48.4339 228.513 48.1514L229.47 49.1904C229.315 49.4137 229.103 49.6279 228.834 49.833C228.57 50.0381 228.251 50.2067 227.877 50.3389C227.503 50.4665 227.077 50.5303 226.599 50.5303ZM232.333 39.8935V50.3935H230.358V39.8935H232.333ZM235.538 39.8935V50.3935H233.563V39.8935H235.538ZM240.07 50.5303C239.495 50.5303 238.98 50.4391 238.525 50.2568C238.069 50.07 237.682 49.8125 237.363 49.4844C237.048 49.1562 236.807 48.7757 236.638 48.3428C236.469 47.9053 236.385 47.4404 236.385 46.9482V46.6748C236.385 46.1142 236.465 45.6015 236.624 45.1367C236.784 44.6719 237.012 44.2685 237.308 43.9267C237.609 43.5849 237.973 43.3229 238.402 43.1406C238.83 42.9538 239.313 42.8603 239.851 42.8603C240.375 42.8603 240.84 42.9469 241.245 43.1201C241.651 43.2933 241.99 43.5394 242.264 43.8584C242.542 44.1774 242.752 44.5602 242.893 45.0068C243.034 45.4489 243.105 45.9411 243.105 46.4834V47.3037H237.226V45.9912H241.17V45.8408C241.17 45.5674 241.12 45.3236 241.02 45.1094C240.924 44.8906 240.778 44.7174 240.582 44.5898C240.386 44.4622 240.136 44.3984 239.83 44.3984C239.571 44.3984 239.347 44.4554 239.16 44.5693C238.974 44.6833 238.821 44.8428 238.702 45.0478C238.588 45.2529 238.502 45.4945 238.443 45.7724C238.388 46.0459 238.361 46.3467 238.361 46.6748V46.9482C238.361 47.2445 238.402 47.5179 238.484 47.7685C238.57 48.0192 238.691 48.2357 238.846 48.418C239.005 48.6002 239.197 48.7415 239.42 48.8418C239.648 48.942 239.906 48.9922 240.193 48.9922C240.548 48.9922 240.878 48.9238 241.184 48.7871C241.494 48.6458 241.76 48.4339 241.984 48.1514L242.941 49.1904C242.786 49.4137 242.574 49.6279 242.305 49.833C242.041 50.0381 241.722 50.2067 241.348 50.3389C240.974 50.4665 240.548 50.5303 240.07 50.5303ZM245.695 44.6103V50.3935H243.726V42.9971H245.578L245.695 44.6103ZM247.923 42.9492L247.889 44.7744C247.793 44.7607 247.677 44.7493 247.54 44.7402C247.408 44.7265 247.287 44.7197 247.178 44.7197C246.9 44.7197 246.658 44.7562 246.453 44.8291C246.253 44.8974 246.084 45 245.948 45.1367C245.815 45.2734 245.715 45.4398 245.647 45.6357C245.583 45.8317 245.546 46.055 245.537 46.3056L245.141 46.1826C245.141 45.7041 245.189 45.2643 245.284 44.8633C245.38 44.4577 245.519 44.1045 245.701 43.8037C245.888 43.5029 246.116 43.2705 246.385 43.1064C246.654 42.9424 246.962 42.8603 247.308 42.8603C247.417 42.8603 247.529 42.8695 247.643 42.8877C247.757 42.9014 247.85 42.9219 247.923 42.9492ZM250.67 49.5596L252.632 42.9971H254.744L251.771 51.5078C251.707 51.6946 251.62 51.8952 251.511 52.1094C251.406 52.3236 251.263 52.5264 251.08 52.7178C250.903 52.9137 250.677 53.0732 250.404 53.1963C250.135 53.3193 249.804 53.3808 249.412 53.3808C249.226 53.3808 249.073 53.3695 248.954 53.3467C248.836 53.3239 248.695 53.292 248.531 53.251V51.8086C248.581 51.8086 248.633 51.8086 248.688 51.8086C248.742 51.8131 248.795 51.8154 248.845 51.8154C249.105 51.8154 249.317 51.7858 249.481 51.7265C249.645 51.6673 249.777 51.5762 249.877 51.4531C249.977 51.3346 250.057 51.1797 250.116 50.9883L250.67 49.5596ZM249.85 42.9971L251.456 48.3564L251.737 50.4414L250.397 50.5849L247.738 42.9971H249.85ZM255.885 48.7324L255.878 50.0517C255.878 50.5576 255.751 51.068 255.495 51.583C255.245 52.098 254.926 52.5195 254.538 52.8476L253.513 52.3213C253.627 52.1116 253.739 51.902 253.848 51.6924C253.957 51.4827 254.048 51.2526 254.121 51.0019C254.194 50.7513 254.231 50.4665 254.231 50.1474V48.7324H255.885Z" fill="#777777"/>
<path d="M120.117 78.7119V74.4756C120.117 74.1709 120.067 73.9102 119.968 73.6934C119.868 73.4707 119.713 73.2979 119.502 73.1748C119.297 73.0518 119.03 72.9902 118.702 72.9902C118.421 72.9902 118.178 73.04 117.973 73.1396C117.768 73.2334 117.609 73.3711 117.498 73.5527C117.387 73.7285 117.331 73.9365 117.331 74.1768H114.8C114.8 73.7725 114.894 73.3887 115.081 73.0254C115.269 72.6621 115.541 72.3428 115.898 72.0674C116.256 71.7861 116.681 71.5664 117.173 71.4082C117.671 71.25 118.228 71.1709 118.843 71.1709C119.581 71.1709 120.237 71.2939 120.812 71.54C121.386 71.7861 121.837 72.1553 122.165 72.6475C122.499 73.1396 122.666 73.7549 122.666 74.4932V78.5625C122.666 79.084 122.698 79.5117 122.763 79.8457C122.827 80.1738 122.921 80.4609 123.044 80.707V80.8564H120.486C120.363 80.5986 120.27 80.2764 120.205 79.8896C120.146 79.4971 120.117 79.1045 120.117 78.7119ZM120.451 75.0645L120.469 76.4971H119.054C118.72 76.4971 118.43 76.5352 118.184 76.6113C117.938 76.6875 117.735 76.7959 117.577 76.9365C117.419 77.0713 117.302 77.2295 117.226 77.4111C117.155 77.5928 117.12 77.792 117.12 78.0088C117.12 78.2256 117.17 78.4219 117.27 78.5977C117.369 78.7676 117.513 78.9023 117.7 79.002C117.888 79.0957 118.107 79.1426 118.359 79.1426C118.74 79.1426 119.071 79.0664 119.353 78.9141C119.634 78.7617 119.851 78.5742 120.003 78.3516C120.161 78.1289 120.243 77.918 120.249 77.7188L120.917 78.791C120.823 79.0312 120.694 79.2803 120.53 79.5381C120.372 79.7959 120.17 80.0391 119.924 80.2676C119.678 80.4902 119.382 80.6748 119.036 80.8213C118.69 80.9619 118.28 81.0322 117.806 81.0322C117.202 81.0322 116.654 80.9121 116.162 80.6719C115.676 80.4258 115.289 80.0889 115.002 79.6611C114.721 79.2275 114.58 78.7354 114.58 78.1846C114.58 77.6865 114.674 77.2441 114.861 76.8574C115.049 76.4707 115.324 76.1455 115.688 75.8818C116.057 75.6123 116.517 75.4102 117.067 75.2754C117.618 75.1348 118.257 75.0645 118.983 75.0645H120.451ZM128.775 71.3467V73.1396H123.238V71.3467H128.775ZM124.609 69H127.141V77.9912C127.141 78.2666 127.176 78.4775 127.246 78.624C127.322 78.7705 127.434 78.873 127.58 78.9316C127.727 78.9844 127.911 79.0107 128.134 79.0107C128.292 79.0107 128.433 79.0049 128.556 78.9932C128.685 78.9756 128.793 78.958 128.881 78.9404L128.89 80.8037C128.673 80.874 128.438 80.9297 128.187 80.9707C127.935 81.0117 127.656 81.0322 127.352 81.0322C126.795 81.0322 126.309 80.9414 125.893 80.7598C125.482 80.5723 125.166 80.2734 124.943 79.8633C124.721 79.4531 124.609 78.9141 124.609 78.2461V69ZM138.357 71.3467V73.1396H132.82V71.3467H138.357ZM134.191 69H136.723V77.9912C136.723 78.2666 136.758 78.4775 136.828 78.624C136.904 78.7705 137.016 78.873 137.162 78.9316C137.309 78.9844 137.493 79.0107 137.716 79.0107C137.874 79.0107 138.015 79.0049 138.138 78.9932C138.267 78.9756 138.375 78.958 138.463 78.9404L138.472 80.8037C138.255 80.874 138.021 80.9297 137.769 80.9707C137.517 81.0117 137.238 81.0322 136.934 81.0322C136.377 81.0322 135.891 80.9414 135.475 80.7598C135.064 80.5723 134.748 80.2734 134.525 79.8633C134.303 79.4531 134.191 78.9141 134.191 78.2461V69ZM141.769 67.3564V80.8564H139.237V67.3564H141.769ZM141.408 75.7676H140.714C140.72 75.1055 140.808 74.4961 140.978 73.9395C141.147 73.377 141.391 72.8906 141.707 72.4805C142.023 72.0645 142.401 71.7422 142.841 71.5137C143.286 71.2852 143.778 71.1709 144.317 71.1709C144.786 71.1709 145.211 71.2383 145.592 71.373C145.979 71.502 146.31 71.7129 146.585 72.0059C146.866 72.293 147.083 72.6709 147.235 73.1396C147.388 73.6084 147.464 74.1768 147.464 74.8447V80.8564H144.915V74.8271C144.915 74.4053 144.854 74.0742 144.73 73.834C144.613 73.5879 144.44 73.415 144.212 73.3154C143.989 73.21 143.714 73.1572 143.386 73.1572C143.022 73.1572 142.712 73.2246 142.454 73.3594C142.202 73.4941 142 73.6816 141.848 73.9219C141.695 74.1562 141.584 74.4316 141.514 74.748C141.443 75.0645 141.408 75.4043 141.408 75.7676ZM153.266 81.0322C152.527 81.0322 151.865 80.915 151.279 80.6807C150.693 80.4404 150.195 80.1094 149.785 79.6875C149.381 79.2656 149.07 78.7764 148.854 78.2197C148.637 77.6572 148.528 77.0596 148.528 76.4268V76.0752C148.528 75.3545 148.631 74.6953 148.836 74.0977C149.041 73.5 149.334 72.9814 149.715 72.542C150.102 72.1025 150.57 71.7656 151.121 71.5312C151.672 71.291 152.293 71.1709 152.984 71.1709C153.658 71.1709 154.256 71.2822 154.777 71.5049C155.299 71.7275 155.735 72.0439 156.087 72.4541C156.444 72.8643 156.714 73.3564 156.896 73.9307C157.077 74.499 157.168 75.1318 157.168 75.8291V76.8838H149.609V75.1963H154.681V75.0029C154.681 74.6514 154.616 74.3379 154.487 74.0625C154.364 73.7812 154.177 73.5586 153.925 73.3945C153.673 73.2305 153.351 73.1484 152.958 73.1484C152.624 73.1484 152.337 73.2217 152.097 73.3682C151.856 73.5146 151.66 73.7197 151.508 73.9834C151.361 74.2471 151.25 74.5576 151.174 74.915C151.104 75.2666 151.068 75.6533 151.068 76.0752V76.4268C151.068 76.8076 151.121 77.1592 151.227 77.4814C151.338 77.8037 151.493 78.082 151.692 78.3164C151.897 78.5508 152.144 78.7324 152.431 78.8613C152.724 78.9902 153.055 79.0547 153.424 79.0547C153.881 79.0547 154.306 78.9668 154.698 78.791C155.097 78.6094 155.439 78.3369 155.727 77.9736L156.957 79.3096C156.758 79.5967 156.485 79.8721 156.14 80.1357C155.8 80.3994 155.39 80.6162 154.909 80.7861C154.429 80.9502 153.881 81.0322 153.266 81.0322ZM168.441 74.6162H164.789L164.77 72.6045H167.836C168.376 72.6045 168.819 72.5361 169.164 72.3994C169.509 72.2562 169.766 72.0511 169.936 71.7842C170.111 71.5107 170.199 71.1787 170.199 70.7881C170.199 70.3454 170.115 69.9873 169.945 69.7139C169.783 69.4404 169.525 69.2419 169.174 69.1182C168.829 68.9945 168.383 68.9326 167.836 68.9326H165.805V80.8564H162.875V66.6377H167.836C168.663 66.6377 169.402 66.7158 170.053 66.8721C170.71 67.0283 171.267 67.266 171.723 67.585C172.178 67.904 172.527 68.3076 172.768 68.7959C173.008 69.2777 173.129 69.8506 173.129 70.5146C173.129 71.1006 172.995 71.641 172.729 72.1357C172.468 72.6305 172.055 73.0342 171.488 73.3467C170.928 73.6592 170.196 73.8317 169.291 73.8643L168.441 74.6162ZM168.314 80.8564H163.988L165.131 78.5713H168.314C168.829 78.5713 169.249 78.4899 169.574 78.3271C169.9 78.1579 170.141 77.93 170.297 77.6436C170.453 77.3571 170.531 77.0283 170.531 76.6572C170.531 76.2406 170.46 75.8792 170.316 75.5732C170.18 75.2673 169.958 75.0329 169.652 74.8701C169.346 74.7008 168.943 74.6162 168.441 74.6162H165.619L165.639 72.6045H169.154L169.828 73.3955C170.694 73.3825 171.391 73.5355 171.918 73.8545C172.452 74.167 172.839 74.5739 173.08 75.0752C173.327 75.5765 173.451 76.1136 173.451 76.6865C173.451 77.598 173.253 78.3662 172.855 78.9912C172.458 79.6097 171.876 80.0752 171.107 80.3877C170.346 80.7002 169.415 80.8564 168.314 80.8564ZM184.689 78.5713V80.8564H177.121V78.5713H184.689ZM178.078 66.6377V80.8564H175.148V66.6377H178.078ZM183.703 72.4287V74.6553H177.121V72.4287H183.703ZM184.68 66.6377V68.9326H177.121V66.6377H184.68ZM193.301 77.1357C193.301 76.8818 193.262 76.654 193.184 76.4521C193.112 76.2438 192.975 76.055 192.773 75.8857C192.572 75.71 192.288 75.5374 191.924 75.3682C191.559 75.1989 191.087 75.0231 190.508 74.8408C189.863 74.6325 189.251 74.3981 188.672 74.1377C188.099 73.8773 187.591 73.5745 187.148 73.2295C186.712 72.8779 186.367 72.471 186.113 72.0088C185.866 71.5465 185.742 71.0094 185.742 70.3975C185.742 69.805 185.872 69.2679 186.133 68.7861C186.393 68.2979 186.758 67.8812 187.227 67.5361C187.695 67.1846 188.249 66.9144 188.887 66.7256C189.531 66.5368 190.238 66.4424 191.006 66.4424C192.054 66.4424 192.969 66.6312 193.75 67.0088C194.531 67.3864 195.137 67.904 195.566 68.5615C196.003 69.2191 196.221 69.971 196.221 70.8174H193.311C193.311 70.4007 193.223 70.0361 193.047 69.7236C192.878 69.4046 192.617 69.154 192.266 68.9717C191.921 68.7894 191.484 68.6982 190.957 68.6982C190.449 68.6982 190.026 68.7764 189.688 68.9326C189.349 69.0824 189.095 69.2874 188.926 69.5479C188.757 69.8018 188.672 70.0882 188.672 70.4072C188.672 70.6481 188.73 70.8662 188.848 71.0615C188.971 71.2568 189.154 71.4391 189.395 71.6084C189.635 71.7777 189.932 71.9372 190.283 72.0869C190.635 72.2367 191.042 72.3831 191.504 72.5264C192.279 72.7607 192.959 73.0244 193.545 73.3174C194.137 73.6104 194.632 73.9391 195.029 74.3037C195.426 74.6683 195.726 75.0817 195.928 75.5439C196.13 76.0062 196.23 76.5303 196.23 77.1162C196.23 77.7347 196.11 78.2881 195.869 78.7764C195.628 79.2646 195.28 79.6781 194.824 80.0166C194.368 80.3551 193.825 80.6123 193.193 80.7881C192.562 80.9639 191.855 81.0518 191.074 81.0518C190.371 81.0518 189.678 80.9606 188.994 80.7783C188.311 80.5895 187.689 80.3063 187.129 79.9287C186.576 79.5511 186.133 79.0693 185.801 78.4834C185.469 77.8975 185.303 77.2041 185.303 76.4033H188.242C188.242 76.846 188.311 77.2204 188.447 77.5264C188.584 77.8324 188.776 78.0798 189.023 78.2686C189.277 78.4574 189.577 78.5941 189.922 78.6787C190.273 78.7633 190.658 78.8057 191.074 78.8057C191.582 78.8057 191.999 78.734 192.324 78.5908C192.656 78.4476 192.9 78.249 193.057 77.9951C193.219 77.7412 193.301 77.4548 193.301 77.1357ZM204.08 66.6377V80.8564H201.16V66.6377H204.08ZM208.455 66.6377V68.9326H196.854V66.6377H208.455ZM215.824 73.1748V84.5127H213.293V71.3467H215.64L215.824 73.1748ZM221.845 75.9961V76.1807C221.845 76.8721 221.763 77.5137 221.599 78.1055C221.44 78.6973 221.206 79.2129 220.896 79.6523C220.585 80.0859 220.198 80.4258 219.735 80.6719C219.278 80.9121 218.751 81.0322 218.153 81.0322C217.573 81.0322 217.069 80.915 216.642 80.6807C216.214 80.4463 215.854 80.1182 215.561 79.6963C215.273 79.2686 215.042 78.7734 214.866 78.2109C214.69 77.6484 214.556 77.0449 214.462 76.4004V75.917C214.556 75.2256 214.69 74.5928 214.866 74.0186C215.042 73.4385 215.273 72.9375 215.561 72.5156C215.854 72.0879 216.211 71.7568 216.633 71.5225C217.061 71.2881 217.562 71.1709 218.136 71.1709C218.739 71.1709 219.27 71.2852 219.727 71.5137C220.189 71.7422 220.576 72.0703 220.887 72.498C221.203 72.9258 221.44 73.4355 221.599 74.0273C221.763 74.6191 221.845 75.2754 221.845 75.9961ZM219.305 76.1807V75.9961C219.305 75.5918 219.27 75.2197 219.199 74.8799C219.135 74.5342 219.029 74.2324 218.883 73.9746C218.742 73.7168 218.555 73.5176 218.32 73.377C218.092 73.2305 217.813 73.1572 217.485 73.1572C217.14 73.1572 216.844 73.2129 216.598 73.3242C216.357 73.4355 216.161 73.5967 216.009 73.8076C215.856 74.0186 215.742 74.2705 215.666 74.5635C215.59 74.8564 215.543 75.1875 215.525 75.5566V76.7783C215.555 77.2119 215.637 77.6016 215.771 77.9473C215.906 78.2871 216.114 78.5566 216.396 78.7559C216.677 78.9551 217.046 79.0547 217.503 79.0547C217.837 79.0547 218.118 78.9814 218.347 78.835C218.575 78.6826 218.76 78.4746 218.9 78.2109C219.047 77.9473 219.149 77.6426 219.208 77.2969C219.272 76.9512 219.305 76.5791 219.305 76.1807ZM225.449 73.4209V80.8564H222.918V71.3467H225.3L225.449 73.4209ZM228.314 71.2852L228.271 73.6318C228.147 73.6143 227.998 73.5996 227.822 73.5879C227.652 73.5703 227.497 73.5615 227.356 73.5615C226.999 73.5615 226.688 73.6084 226.425 73.7021C226.167 73.79 225.95 73.9219 225.774 74.0977C225.604 74.2734 225.476 74.4873 225.388 74.7393C225.306 74.9912 225.259 75.2783 225.247 75.6006L224.737 75.4424C224.737 74.8271 224.799 74.2617 224.922 73.7461C225.045 73.2246 225.224 72.7705 225.458 72.3838C225.698 71.9971 225.991 71.6982 226.337 71.4873C226.683 71.2764 227.078 71.1709 227.523 71.1709C227.664 71.1709 227.808 71.1826 227.954 71.2061C228.101 71.2236 228.221 71.25 228.314 71.2852ZM231.682 71.3467V80.8564H229.142V71.3467H231.682ZM228.983 68.8682C228.983 68.499 229.112 68.1943 229.37 67.9541C229.628 67.7139 229.974 67.5938 230.407 67.5938C230.835 67.5938 231.178 67.7139 231.436 67.9541C231.699 68.1943 231.831 68.499 231.831 68.8682C231.831 69.2373 231.699 69.542 231.436 69.7822C231.178 70.0225 230.835 70.1426 230.407 70.1426C229.974 70.1426 229.628 70.0225 229.37 69.7822C229.112 69.542 228.983 69.2373 228.983 68.8682ZM237.202 79.0547C237.513 79.0547 237.788 78.9961 238.028 78.8789C238.269 78.7559 238.456 78.5859 238.591 78.3691C238.731 78.1465 238.805 77.8857 238.811 77.5869H241.192C241.187 78.2549 241.008 78.8496 240.656 79.3711C240.305 79.8867 239.833 80.2939 239.241 80.5928C238.649 80.8857 237.987 81.0322 237.255 81.0322C236.517 81.0322 235.872 80.9092 235.321 80.6631C234.776 80.417 234.322 80.0771 233.959 79.6436C233.596 79.2041 233.323 78.6943 233.142 78.1143C232.96 77.5283 232.869 76.9014 232.869 76.2334V75.9785C232.869 75.3047 232.96 74.6777 233.142 74.0977C233.323 73.5117 233.596 73.002 233.959 72.5684C234.322 72.1289 234.776 71.7861 235.321 71.54C235.866 71.2939 236.505 71.1709 237.237 71.1709C238.017 71.1709 238.699 71.3203 239.285 71.6191C239.877 71.918 240.34 72.3457 240.674 72.9023C241.014 73.4531 241.187 74.1064 241.192 74.8623H238.811C238.805 74.5459 238.737 74.2588 238.608 74.001C238.485 73.7432 238.304 73.5381 238.063 73.3857C237.829 73.2275 237.539 73.1484 237.193 73.1484C236.824 73.1484 236.522 73.2275 236.288 73.3857C236.054 73.5381 235.872 73.749 235.743 74.0186C235.614 74.2822 235.523 74.584 235.471 74.9238C235.424 75.2578 235.4 75.6094 235.4 75.9785V76.2334C235.4 76.6025 235.424 76.957 235.471 77.2969C235.518 77.6367 235.605 77.9385 235.734 78.2021C235.869 78.4658 236.054 78.6738 236.288 78.8262C236.522 78.9785 236.827 79.0547 237.202 79.0547ZM246.537 81.0322C245.799 81.0322 245.137 80.915 244.551 80.6807C243.965 80.4404 243.467 80.1094 243.057 79.6875C242.652 79.2656 242.342 78.7764 242.125 78.2197C241.908 77.6572 241.8 77.0596 241.8 76.4268V76.0752C241.8 75.3545 241.902 74.6953 242.107 74.0977C242.312 73.5 242.605 72.9814 242.986 72.542C243.373 72.1025 243.842 71.7656 244.393 71.5312C244.943 71.291 245.564 71.1709 246.256 71.1709C246.93 71.1709 247.527 71.2822 248.049 71.5049C248.57 71.7275 249.007 72.0439 249.358 72.4541C249.716 72.8643 249.985 73.3564 250.167 73.9307C250.349 74.499 250.439 75.1318 250.439 75.8291V76.8838H242.881V75.1963H247.952V75.0029C247.952 74.6514 247.888 74.3379 247.759 74.0625C247.636 73.7812 247.448 73.5586 247.196 73.3945C246.944 73.2305 246.622 73.1484 246.229 73.1484C245.896 73.1484 245.608 73.2217 245.368 73.3682C245.128 73.5146 244.932 73.7197 244.779 73.9834C244.633 74.2471 244.521 74.5576 244.445 74.915C244.375 75.2666 244.34 75.6533 244.34 76.0752V76.4268C244.34 76.8076 244.393 77.1592 244.498 77.4814C244.609 77.8037 244.765 78.082 244.964 78.3164C245.169 78.5508 245.415 78.7324 245.702 78.8613C245.995 78.9902 246.326 79.0547 246.695 79.0547C247.152 79.0547 247.577 78.9668 247.97 78.791C248.368 78.6094 248.711 78.3369 248.998 77.9736L250.229 79.3096C250.029 79.5967 249.757 79.8721 249.411 80.1357C249.071 80.3994 248.661 80.6162 248.181 80.7861C247.7 80.9502 247.152 81.0322 246.537 81.0322ZM256.522 78.2285C256.522 78.0469 256.47 77.8828 256.364 77.7363C256.259 77.5898 256.062 77.4551 255.775 77.332C255.494 77.2031 255.087 77.0859 254.554 76.9805C254.073 76.875 253.625 76.7432 253.209 76.585C252.799 76.4209 252.441 76.2246 252.137 75.9961C251.838 75.7676 251.604 75.498 251.434 75.1875C251.264 74.8711 251.179 74.5107 251.179 74.1064C251.179 73.708 251.264 73.333 251.434 72.9814C251.609 72.6299 251.858 72.3193 252.181 72.0498C252.509 71.7744 252.907 71.5605 253.376 71.4082C253.851 71.25 254.384 71.1709 254.976 71.1709C255.802 71.1709 256.511 71.3027 257.103 71.5664C257.7 71.8301 258.157 72.1934 258.474 72.6562C258.796 73.1133 258.957 73.6348 258.957 74.2207H256.426C256.426 73.9746 256.373 73.7549 256.268 73.5615C256.168 73.3623 256.01 73.207 255.793 73.0957C255.582 72.9785 255.307 72.9199 254.967 72.9199C254.686 72.9199 254.442 72.9697 254.237 73.0693C254.032 73.1631 253.874 73.292 253.763 73.4561C253.657 73.6143 253.604 73.79 253.604 73.9834C253.604 74.1299 253.634 74.2617 253.692 74.3789C253.757 74.4902 253.859 74.5928 254 74.6865C254.141 74.7803 254.322 74.8682 254.545 74.9502C254.773 75.0264 255.055 75.0967 255.389 75.1611C256.074 75.3018 256.687 75.4863 257.226 75.7148C257.765 75.9375 258.192 76.2422 258.509 76.6289C258.825 77.0098 258.983 77.5107 258.983 78.1318C258.983 78.5537 258.89 78.9404 258.702 79.292C258.515 79.6436 258.245 79.9512 257.894 80.2148C257.542 80.4727 257.12 80.6748 256.628 80.8213C256.142 80.9619 255.594 81.0322 254.984 81.0322C254.1 81.0322 253.35 80.874 252.734 80.5576C252.125 80.2412 251.662 79.8398 251.346 79.3535C251.035 78.8613 250.88 78.3574 250.88 77.8418H253.279C253.291 78.1875 253.379 78.4658 253.543 78.6768C253.713 78.8877 253.927 79.04 254.185 79.1338C254.448 79.2275 254.732 79.2744 255.037 79.2744C255.365 79.2744 255.638 79.2305 255.854 79.1426C256.071 79.0488 256.235 78.9258 256.347 78.7734C256.464 78.6152 256.522 78.4336 256.522 78.2285ZM260.25 79.6348C260.25 79.2598 260.379 78.9463 260.637 78.6943C260.9 78.4424 261.249 78.3164 261.683 78.3164C262.116 78.3164 262.462 78.4424 262.72 78.6943C262.983 78.9463 263.115 79.2598 263.115 79.6348C263.115 80.0098 262.983 80.3232 262.72 80.5752C262.462 80.8271 262.116 80.9531 261.683 80.9531C261.249 80.9531 260.9 80.8271 260.637 80.5752C260.379 80.3232 260.25 80.0098 260.25 79.6348Z" fill="#777777"/>
<path d="M191.837 111.455V116.856H190.009V109.988H191.723L191.837 111.455ZM191.571 113.181H191.076C191.076 112.673 191.141 112.216 191.272 111.81C191.404 111.4 191.588 111.05 191.825 110.763C192.062 110.471 192.343 110.249 192.669 110.096C192.999 109.94 193.367 109.861 193.773 109.861C194.095 109.861 194.389 109.908 194.656 110.001C194.922 110.094 195.151 110.242 195.341 110.445C195.536 110.648 195.684 110.917 195.786 111.251C195.891 111.586 195.944 111.994 195.944 112.477V116.856H194.104V112.47C194.104 112.166 194.061 111.929 193.977 111.759C193.892 111.59 193.767 111.472 193.602 111.404C193.441 111.332 193.242 111.296 193.005 111.296C192.76 111.296 192.546 111.345 192.364 111.442C192.187 111.539 192.038 111.675 191.92 111.848C191.806 112.017 191.719 112.216 191.66 112.445C191.6 112.673 191.571 112.919 191.571 113.181ZM196.542 113.492V113.359C196.542 112.855 196.614 112.392 196.758 111.969C196.902 111.541 197.112 111.171 197.387 110.858C197.662 110.545 198 110.301 198.402 110.128C198.804 109.95 199.266 109.861 199.786 109.861C200.307 109.861 200.77 109.95 201.176 110.128C201.583 110.301 201.923 110.545 202.198 110.858C202.478 111.171 202.689 111.541 202.833 111.969C202.977 112.392 203.049 112.855 203.049 113.359V113.492C203.049 113.992 202.977 114.455 202.833 114.882C202.689 115.306 202.478 115.676 202.198 115.993C201.923 116.306 201.585 116.55 201.183 116.723C200.781 116.897 200.319 116.983 199.799 116.983C199.278 116.983 198.815 116.897 198.409 116.723C198.007 116.55 197.666 116.306 197.387 115.993C197.112 115.676 196.902 115.306 196.758 114.882C196.614 114.455 196.542 113.992 196.542 113.492ZM198.371 113.359V113.492C198.371 113.78 198.396 114.049 198.447 114.298C198.498 114.548 198.578 114.768 198.688 114.958C198.802 115.145 198.95 115.291 199.132 115.396C199.314 115.502 199.536 115.555 199.799 115.555C200.053 115.555 200.271 115.502 200.453 115.396C200.635 115.291 200.781 115.145 200.891 114.958C201.001 114.768 201.081 114.548 201.132 114.298C201.187 114.049 201.214 113.78 201.214 113.492V113.359C201.214 113.08 201.187 112.817 201.132 112.572C201.081 112.322 200.999 112.102 200.884 111.912C200.774 111.717 200.628 111.565 200.446 111.455C200.264 111.345 200.044 111.29 199.786 111.29C199.528 111.29 199.308 111.345 199.126 111.455C198.948 111.565 198.802 111.717 198.688 111.912C198.578 112.102 198.498 112.322 198.447 112.572C198.396 112.817 198.371 113.08 198.371 113.359ZM205.634 115.079L207.062 109.988H208.224L207.849 111.988L206.421 116.856H205.45L205.634 115.079ZM204.91 109.988L205.932 115.073L206.027 116.856H204.885L203.146 109.988H204.91ZM209.531 114.99L210.528 109.988H212.299L210.56 116.856H209.423L209.531 114.99ZM208.382 109.988L209.804 115.041L210.001 116.856H209.023L207.595 111.994L207.233 109.988H208.382ZM219.164 115.308V112.248C219.164 112.028 219.128 111.84 219.056 111.683C218.984 111.522 218.872 111.397 218.719 111.309C218.571 111.22 218.379 111.175 218.142 111.175C217.938 111.175 217.763 111.211 217.615 111.283C217.467 111.351 217.352 111.45 217.272 111.582C217.192 111.708 217.151 111.859 217.151 112.032H215.323C215.323 111.74 215.391 111.463 215.526 111.201C215.662 110.938 215.859 110.708 216.117 110.509C216.375 110.306 216.682 110.147 217.037 110.033C217.397 109.918 217.799 109.861 218.243 109.861C218.776 109.861 219.25 109.95 219.665 110.128C220.08 110.306 220.406 110.572 220.643 110.928C220.884 111.283 221.004 111.728 221.004 112.261V115.2C221.004 115.576 221.028 115.885 221.074 116.126C221.121 116.363 221.188 116.571 221.277 116.749V116.856H219.43C219.341 116.67 219.274 116.438 219.227 116.158C219.185 115.875 219.164 115.591 219.164 115.308ZM219.405 112.673L219.417 113.708H218.396C218.154 113.708 217.945 113.736 217.767 113.791C217.589 113.846 217.443 113.924 217.329 114.025C217.215 114.123 217.13 114.237 217.075 114.368C217.024 114.499 216.999 114.643 216.999 114.8C216.999 114.956 217.035 115.098 217.107 115.225C217.179 115.348 217.283 115.445 217.418 115.517C217.553 115.585 217.712 115.619 217.894 115.619C218.169 115.619 218.408 115.564 218.611 115.454C218.814 115.344 218.971 115.208 219.081 115.047C219.195 114.887 219.255 114.734 219.259 114.59L219.741 115.365C219.674 115.538 219.58 115.718 219.462 115.904C219.348 116.09 219.202 116.266 219.024 116.431C218.846 116.592 218.632 116.725 218.383 116.831C218.133 116.933 217.837 116.983 217.494 116.983C217.058 116.983 216.663 116.897 216.307 116.723C215.956 116.545 215.677 116.302 215.469 115.993C215.266 115.68 215.165 115.325 215.165 114.927C215.165 114.567 215.232 114.248 215.368 113.968C215.503 113.689 215.702 113.454 215.964 113.264C216.231 113.069 216.563 112.923 216.961 112.826C217.359 112.724 217.82 112.673 218.345 112.673H219.405ZM225.278 109.988V111.283H221.279V109.988H225.278ZM222.269 108.293H224.097V114.787C224.097 114.986 224.123 115.138 224.173 115.244C224.228 115.35 224.309 115.424 224.415 115.466C224.52 115.504 224.654 115.523 224.814 115.523C224.929 115.523 225.03 115.519 225.119 115.511C225.212 115.498 225.291 115.485 225.354 115.473L225.36 116.818C225.204 116.869 225.035 116.909 224.853 116.939C224.671 116.969 224.47 116.983 224.25 116.983C223.847 116.983 223.496 116.918 223.196 116.787C222.9 116.651 222.671 116.435 222.51 116.139C222.349 115.843 222.269 115.454 222.269 114.971V108.293Z" fill="#777777"/>
<path d="M241.467 113.429V116.856H232.124V113.429H241.467ZM233.71 98.3721V116.856H229.254V98.3721H233.71ZM242.11 110.128V109.861C242.11 108.854 242.254 107.927 242.542 107.081C242.829 106.226 243.252 105.486 243.811 104.859C244.37 104.233 245.059 103.746 245.88 103.399C246.701 103.044 247.649 102.866 248.724 102.866C249.807 102.866 250.76 103.044 251.581 103.399C252.41 103.746 253.104 104.233 253.663 104.859C254.221 105.486 254.644 106.226 254.932 107.081C255.22 107.927 255.364 108.854 255.364 109.861V110.128C255.364 111.127 255.22 112.053 254.932 112.908C254.644 113.755 254.221 114.495 253.663 115.13C253.104 115.756 252.414 116.243 251.593 116.59C250.772 116.937 249.824 117.11 248.75 117.11C247.675 117.11 246.722 116.937 245.893 116.59C245.064 116.243 244.37 115.756 243.811 115.13C243.252 114.495 242.829 113.755 242.542 112.908C242.254 112.053 242.11 111.127 242.11 110.128ZM246.388 109.861V110.128C246.388 110.644 246.426 111.127 246.502 111.575C246.579 112.024 246.706 112.417 246.883 112.756C247.061 113.086 247.302 113.344 247.607 113.53C247.912 113.716 248.292 113.81 248.75 113.81C249.198 113.81 249.57 113.716 249.867 113.53C250.171 113.344 250.413 113.086 250.59 112.756C250.768 112.417 250.895 112.024 250.971 111.575C251.047 111.127 251.085 110.644 251.085 110.128V109.861C251.085 109.362 251.047 108.892 250.971 108.452C250.895 108.004 250.768 107.61 250.59 107.271C250.413 106.924 250.171 106.654 249.867 106.459C249.562 106.264 249.181 106.167 248.724 106.167C248.276 106.167 247.899 106.264 247.594 106.459C247.298 106.654 247.061 106.924 246.883 107.271C246.706 107.61 246.579 108.004 246.502 108.452C246.426 108.892 246.388 109.362 246.388 109.861ZM260.97 106.053V116.856H256.692V103.12H260.704L260.97 106.053ZM260.462 109.519L259.459 109.544C259.459 108.494 259.586 107.559 259.84 106.738C260.094 105.909 260.454 105.206 260.919 104.631C261.385 104.055 261.939 103.619 262.583 103.323C263.234 103.019 263.958 102.866 264.753 102.866C265.388 102.866 265.968 102.959 266.493 103.146C267.026 103.332 267.483 103.632 267.864 104.047C268.253 104.462 268.549 105.012 268.752 105.697C268.964 106.374 269.07 107.212 269.07 108.211V116.856H264.766V108.198C264.766 107.648 264.69 107.229 264.538 106.941C264.385 106.645 264.165 106.442 263.877 106.332C263.59 106.222 263.238 106.167 262.824 106.167C262.384 106.167 262.011 106.252 261.707 106.421C261.402 106.59 261.156 106.827 260.97 107.132C260.792 107.428 260.661 107.779 260.577 108.186C260.5 108.592 260.462 109.036 260.462 109.519ZM278.84 113.708V97.3564H283.144V116.856H279.285L278.84 113.708ZM270.411 110.153V109.887C270.411 108.846 270.525 107.898 270.753 107.043C270.982 106.18 271.32 105.439 271.769 104.821C272.218 104.195 272.776 103.713 273.445 103.374C274.113 103.035 274.884 102.866 275.755 102.866C276.534 102.866 277.215 103.048 277.799 103.412C278.383 103.768 278.883 104.267 279.297 104.91C279.712 105.553 280.051 106.307 280.313 107.17C280.575 108.025 280.774 108.947 280.91 109.938V110.255C280.774 111.186 280.575 112.066 280.313 112.896C280.051 113.716 279.712 114.444 279.297 115.079C278.883 115.714 278.379 116.213 277.787 116.577C277.203 116.933 276.517 117.11 275.73 117.11C274.858 117.11 274.088 116.937 273.419 116.59C272.759 116.243 272.205 115.756 271.756 115.13C271.316 114.504 270.982 113.767 270.753 112.921C270.525 112.075 270.411 111.152 270.411 110.153ZM274.689 109.887V110.153C274.689 110.67 274.723 111.148 274.791 111.588C274.858 112.028 274.972 112.417 275.133 112.756C275.303 113.086 275.523 113.344 275.793 113.53C276.073 113.716 276.416 113.81 276.822 113.81C277.372 113.81 277.825 113.678 278.18 113.416C278.544 113.154 278.811 112.781 278.98 112.299C279.158 111.816 279.234 111.249 279.208 110.598V109.595C279.225 109.036 279.187 108.545 279.094 108.122C279.001 107.69 278.853 107.331 278.65 107.043C278.455 106.755 278.206 106.539 277.901 106.396C277.605 106.243 277.253 106.167 276.847 106.167C276.449 106.167 276.111 106.26 275.832 106.446C275.561 106.632 275.341 106.895 275.171 107.233C275.002 107.563 274.879 107.957 274.803 108.414C274.727 108.863 274.689 109.354 274.689 109.887ZM284.536 110.128V109.861C284.536 108.854 284.68 107.927 284.967 107.081C285.255 106.226 285.678 105.486 286.237 104.859C286.795 104.233 287.485 103.746 288.306 103.399C289.127 103.044 290.075 102.866 291.15 102.866C292.233 102.866 293.185 103.044 294.006 103.399C294.836 103.746 295.53 104.233 296.088 104.859C296.647 105.486 297.07 106.226 297.358 107.081C297.646 107.927 297.79 108.854 297.79 109.861V110.128C297.79 111.127 297.646 112.053 297.358 112.908C297.07 113.755 296.647 114.495 296.088 115.13C295.53 115.756 294.84 116.243 294.019 116.59C293.198 116.937 292.25 117.11 291.175 117.11C290.1 117.11 289.148 116.937 288.319 116.59C287.489 116.243 286.795 115.756 286.237 115.13C285.678 114.495 285.255 113.755 284.967 112.908C284.68 112.053 284.536 111.127 284.536 110.128ZM288.814 109.861V110.128C288.814 110.644 288.852 111.127 288.928 111.575C289.004 112.024 289.131 112.417 289.309 112.756C289.487 113.086 289.728 113.344 290.033 113.53C290.337 113.716 290.718 113.81 291.175 113.81C291.624 113.81 291.996 113.716 292.292 113.53C292.597 113.344 292.838 113.086 293.016 112.756C293.194 112.417 293.321 112.024 293.397 111.575C293.473 111.127 293.511 110.644 293.511 110.128V109.861C293.511 109.362 293.473 108.892 293.397 108.452C293.321 108.004 293.194 107.61 293.016 107.271C292.838 106.924 292.597 106.654 292.292 106.459C291.988 106.264 291.607 106.167 291.15 106.167C290.701 106.167 290.325 106.264 290.02 106.459C289.724 106.654 289.487 106.924 289.309 107.271C289.131 107.61 289.004 108.004 288.928 108.452C288.852 108.892 288.814 109.362 288.814 109.861ZM303.396 106.053V116.856H299.118V103.12H303.129L303.396 106.053ZM302.888 109.519L301.885 109.544C301.885 108.494 302.012 107.559 302.266 106.738C302.52 105.909 302.88 105.206 303.345 104.631C303.811 104.055 304.365 103.619 305.008 103.323C305.66 103.019 306.384 102.866 307.179 102.866C307.814 102.866 308.394 102.959 308.918 103.146C309.452 103.332 309.909 103.632 310.29 104.047C310.679 104.462 310.975 105.012 311.178 105.697C311.39 106.374 311.496 107.212 311.496 108.211V116.856H307.192V108.198C307.192 107.648 307.116 107.229 306.963 106.941C306.811 106.645 306.591 106.442 306.303 106.332C306.015 106.222 305.664 106.167 305.25 106.167C304.809 106.167 304.437 106.252 304.132 106.421C303.828 106.59 303.582 106.827 303.396 107.132C303.218 107.428 303.087 107.779 303.002 108.186C302.926 108.592 302.888 109.036 302.888 109.519Z" fill="#4F0336"/>
<circle cx="319.5" cy="112.356" r="4.5" fill="#4F0336"/>
</svg>
