<svg width="15" height="15" viewBox="0 0 15 15" fill="none" xmlns="http://www.w3.org/2000/svg">
<path fill-rule="evenodd" clip-rule="evenodd" d="M10.5623 4.49998C10.5623 2.84548 9.18888 1.49999 7.5 1.49999C5.81112 1.49999 4.43766 2.84548 4.43766 4.49998C4.43766 6.15449 5.81112 7.49998 7.5 7.49998C9.18888 7.49998 10.5623 6.15449 10.5623 4.49998ZM13.4593 15H12.0935C11.6709 15 11.3279 14.664 11.3279 14.25C11.3279 13.836 11.6709 13.5 12.0935 13.5H12.4219C12.9517 13.5 13.3429 12.9772 13.1424 12.4965C12.2152 10.2735 10.0379 8.99998 7.5 8.99998C4.96209 8.99998 2.78476 10.2735 1.85764 12.4965C1.65705 12.9772 2.04828 13.5 2.57806 13.5H2.90649C3.32909 13.5 3.67207 13.836 3.67207 14.25C3.67207 14.664 3.32909 15 2.90649 15H1.54068C0.5837 15 -0.169636 14.1427 0.0332437 13.227C0.590589 10.7077 2.33078 8.84846 4.62294 8.00471C3.57715 7.18046 2.90649 5.91749 2.90649 4.49998C2.90649 1.83674 5.26756 -0.285767 8.05046 0.0314826C10.067 0.260982 11.7375 1.8352 12.0399 3.80244C12.3002 5.4982 11.592 7.04696 10.3771 8.00471C12.6692 8.84846 14.4094 10.7077 14.9668 13.227C15.1696 14.1427 14.4163 15 13.4593 15ZM9.79676 14.25C9.79676 14.664 9.45377 15 9.03117 15H5.96883C5.54623 15 5.20324 14.664 5.20324 14.25C5.20324 13.836 5.54623 13.5 5.96883 13.5H9.03117C9.45377 13.5 9.79676 13.836 9.79676 14.25Z" fill="#4F0336"/>
</svg>
