<svg width="23" height="20" viewBox="0 0 23 20" fill="none" xmlns="http://www.w3.org/2000/svg">
<path fill-rule="evenodd" clip-rule="evenodd" d="M15.7042 5.99999C15.7042 3.79399 13.6621 1.99999 11.1511 1.99999C8.64002 1.99999 6.59795 3.79399 6.59795 5.99999C6.59795 8.206 8.64002 9.99999 11.1511 9.99999C13.6621 9.99999 15.7042 8.206 15.7042 5.99999ZM20.0114 20H17.9807C17.3524 20 16.8425 19.552 16.8425 19C16.8425 18.448 17.3524 18 17.9807 18H18.469C19.2567 18 19.8384 17.303 19.5402 16.662C18.1617 13.698 14.9245 12 11.1511 12C7.37767 12 4.1404 13.698 2.76195 16.662C2.46372 17.303 3.0454 18 3.83309 18H4.32139C4.94972 18 5.45967 18.448 5.45967 19C5.45967 19.552 4.94972 20 4.32139 20H2.2907C0.86785 20 -0.252217 18.857 0.049427 17.636C0.878093 14.277 3.46542 11.798 6.87342 10.673C5.31853 9.57397 4.32139 7.89 4.32139 5.99999C4.32139 2.44899 7.83185 -0.381023 11.9695 0.0419769C14.9677 0.347977 17.4514 2.44693 17.901 5.06993C18.2881 7.33095 17.2352 9.39597 15.4287 10.673C18.8367 11.798 21.424 14.277 22.2527 17.636C22.5543 18.857 21.4343 20 20.0114 20ZM14.5659 19C14.5659 19.552 14.056 20 13.4276 20H8.87451C8.24618 20 7.73623 19.552 7.73623 19C7.73623 18.448 8.24618 18 8.87451 18H13.4276C14.056 18 14.5659 18.448 14.5659 19Z" fill="#4F0336"/>
</svg>
