<svg width="39" height="26" viewBox="0 0 39 26" fill="none" xmlns="http://www.w3.org/2000/svg">
<path d="M10.5453 17.7876H2.7936C2.15176 17.7876 1.60278 18.2446 1.49404 18.8699L0.51925 24.4764C0.380682 25.2724 1.00135 26 1.81881 26H11.52C12.3375 26 12.9577 25.2724 12.8196 24.4764L11.8448 18.8699C11.7361 18.2446 11.1876 17.7876 10.5453 17.7876Z" fill="#B5B7BB"/>
<path d="M9.63734 17.7876H2.79359C2.15175 17.7876 1.60277 18.2446 1.49403 18.8699L0.62365 23.8768C0.455732 24.8421 1.3853 25.6386 2.32881 25.3376L8.72702 23.2933C9.08547 23.1787 9.37704 22.9181 9.5286 22.5771L10.845 19.6146C11.2275 18.7534 10.5895 17.7876 9.63782 17.7876H9.63734Z" fill="#D8D8D8"/>
<path d="M23.3397 17.7876H15.5881C14.9462 17.7876 14.3973 18.2446 14.2885 18.8699L13.3137 24.4764C13.1752 25.2724 13.7958 26 14.6133 26H24.3145C25.132 26 25.7522 25.2724 25.6141 24.4764L24.6393 18.8699C24.5306 18.2446 23.9821 17.7876 23.3397 17.7876Z" fill="#B5B7BB"/>
<path d="M22.4318 17.7876H15.5881C14.9462 17.7876 14.3973 18.2446 14.2885 18.8699L13.4181 23.8768C13.2502 24.8421 14.1798 25.6386 15.1233 25.3376L21.5215 23.2933C21.88 23.1787 22.1715 22.9181 22.3231 22.5771L23.6395 19.6146C24.022 18.7534 23.384 17.7876 22.4323 17.7876H22.4318Z" fill="#D8D8D8"/>
<path d="M36.2064 17.7876H28.4548C27.8129 17.7876 27.2639 18.2446 27.1552 18.8699L26.1804 24.4764C26.0418 25.2724 26.6625 26 27.48 26H37.1812C37.9987 26 38.6188 25.2724 38.4808 24.4764L37.506 18.8699C37.3972 18.2446 36.8487 17.7876 36.2064 17.7876Z" fill="#B5B7BB"/>
<path d="M35.2985 17.7876H28.4548C27.8129 17.7876 27.2639 18.2446 27.1552 18.8699L26.2848 23.8768C26.1169 24.8421 27.0465 25.6386 27.99 25.3376L34.3882 23.2933C34.7466 23.1787 35.0382 22.9181 35.1898 22.5771L36.5062 19.6146C36.8887 18.7534 36.2507 17.7876 35.299 17.7876H35.2985Z" fill="#D8D8D8"/>
<path d="M16.9425 8.89381H9.19085C8.54901 8.89381 8.00003 9.35079 7.89129 9.97611L6.9165 15.5826C6.77793 16.3786 7.3986 17.1062 8.21606 17.1062H17.9173C18.7348 17.1062 19.3549 16.3786 19.2169 15.5826L18.2421 9.97611C18.1333 9.35079 17.5848 8.89381 16.9425 8.89381Z" fill="#B5B7BB"/>
<path d="M16.0346 8.89381H9.19084C8.549 8.89381 8.00002 9.35079 7.89128 9.97611L7.0209 14.9829C6.85298 15.9483 7.78254 16.7448 8.72606 16.4438L15.1243 14.3995C15.4827 14.2849 15.7743 14.0243 15.9258 13.6833L17.2422 10.7208C17.6248 9.8596 16.9868 8.89381 16.0351 8.89381H16.0346Z" fill="#D8D8D8"/>
<path d="M29.8092 8.89381H22.0575C21.4157 8.89381 20.8667 9.35079 20.7579 9.97611L19.7832 15.5826C19.6446 16.3786 20.2653 17.1062 21.0827 17.1062H30.7839C31.6014 17.1062 32.2216 16.3786 32.0835 15.5826L31.1087 9.97611C31 9.35079 30.4515 8.89381 29.8092 8.89381Z" fill="#B5B7BB"/>
<path d="M28.9012 8.89381H22.0575C21.4157 8.89381 20.8667 9.35079 20.7579 9.97611L19.8876 14.9829C19.7196 15.9483 20.6492 16.7448 21.5927 16.4438L27.9909 14.3995C28.3494 14.2849 28.641 14.0243 28.7925 13.6833L30.1089 10.7208C30.4914 9.8596 29.8534 8.89381 28.9017 8.89381H28.9012Z" fill="#D8D8D8"/>
<path d="M23.3758 0.047554H15.6242C14.9823 0.047554 14.4333 0.504537 14.3246 1.12986L13.3498 6.73634C13.2112 7.53237 13.8319 8.25993 14.6494 8.25993H24.3506C25.1681 8.25993 25.7883 7.53237 25.6502 6.73634L24.6754 1.12986C24.5666 0.504537 24.0181 0.047554 23.3758 0.047554Z" fill="#B5B7BB"/>
<path d="M22.4679 0H15.6242C14.9823 0 14.4333 0.456983 14.3246 1.0823L13.4542 6.08914C13.2863 7.05447 14.2159 7.85098 15.1594 7.54997L21.5576 5.50567C21.916 5.39107 22.2076 5.13048 22.3592 4.78952L23.6756 1.82698C24.0581 0.965798 23.4201 0 22.4684 0H22.4679Z" fill="#D8D8D8"/>
</svg>
