<svg width="17" height="18" viewBox="0 0 17 18" fill="none" xmlns="http://www.w3.org/2000/svg">
<path d="M1 15.2222V3.84444C1 2.8488 1 2.35097 1.23356 1.97068C1.439 1.63617 1.76681 1.3642 2.17002 1.19377C2.6284 1 3.22846 1 4.42857 1H12.5714C13.7715 1 14.3716 1 14.83 1.19377C15.2332 1.3642 15.561 1.63617 15.7664 1.97068C16 2.35097 16 2.8488 16 3.84444V13.4444H3.14286C1.95939 13.4444 1 14.2404 1 15.2222ZM1 15.2222C1 16.2041 1.95939 17 3.14286 17H16M14.9286 13.4444V17M11.7143 10.3333C11.4104 9.31902 10.0868 8.55556 8.5 8.55556C6.91321 8.55556 5.58961 9.31902 5.28571 10.3333M8.5 5H8.51071M9.57143 5C9.57143 5.49092 9.09175 5.88889 8.5 5.88889C7.90825 5.88889 7.42857 5.49092 7.42857 5C7.42857 4.50908 7.90825 4.11111 8.5 4.11111C9.09175 4.11111 9.57143 4.50908 9.57143 5Z" stroke="#4F0336" stroke-linecap="round" stroke-linejoin="round"/>
</svg>
