<svg width="13" height="16" viewBox="0 0 13 16" fill="none" xmlns="http://www.w3.org/2000/svg">
<path d="M4.26582 5.09704H9.16023M4.26582 8.02364H9.16023M4.26582 10.9502H6.71303M3.61324 14.6085H9.81282C10.7265 14.6085 11.1834 14.6085 11.5324 14.449C11.8394 14.3087 12.089 14.0849 12.2453 13.8095C12.4232 13.4965 12.4232 13.0867 12.4232 12.2672V3.78006C12.4232 2.96054 12.4232 2.55077 12.2453 2.23776C12.089 1.96242 11.8394 1.73856 11.5324 1.59827C11.1834 1.43878 10.7265 1.43878 9.81282 1.43878H3.61324C2.69953 1.43878 2.24267 1.43878 1.89368 1.59827C1.5867 1.73856 1.33711 1.96242 1.18071 2.23776C1.00288 2.55077 1.00288 2.96053 1.00288 3.78006V12.2672C1.00288 13.0867 1.00288 13.4965 1.18071 13.8095C1.33711 14.0849 1.5867 14.3087 1.89368 14.449C2.24267 14.6085 2.69952 14.6085 3.61324 14.6085Z" stroke="#4F0336" stroke-linecap="round" stroke-linejoin="round"/>
</svg>
