<svg width="11" height="11" viewBox="0 0 11 11" fill="none" xmlns="http://www.w3.org/2000/svg">
<g clip-path="url(#clip0_131_463)">
<path d="M10.0587 2.0778C9.68901 2.23996 9.2951 2.34745 8.8844 2.39964C9.3069 2.14739 9.62937 1.75098 9.78097 1.27318C9.38705 1.50804 8.95213 1.67394 8.48862 1.76652C8.11458 1.36825 7.58149 1.12158 6.99993 1.12158C5.87161 1.12158 4.96323 2.03741 4.96323 3.16014C4.96323 3.32169 4.9769 3.47702 5.01045 3.62489C3.31611 3.54226 1.81686 2.73019 0.809692 1.49313C0.633858 1.7982 0.530718 2.14739 0.530718 2.52329C0.530718 3.22911 0.894192 3.85478 1.43599 4.21701C1.10855 4.2108 0.787324 4.11574 0.515185 3.966C0.515185 3.97221 0.515185 3.98029 0.515185 3.98836C0.515185 4.97875 1.22163 5.80138 2.14802 5.99089C1.98213 6.03624 1.80132 6.05799 1.61368 6.05799C1.48321 6.05799 1.35149 6.05053 1.22784 6.0232C1.4919 6.8303 2.24122 7.42366 3.1322 7.44292C2.4388 7.98533 1.55839 8.31215 0.605277 8.31215C0.438141 8.31215 0.27784 8.30469 0.117538 8.28419C1.02032 8.86637 2.09024 9.19878 3.24403 9.19878C6.99434 9.19878 9.0447 6.09216 9.0447 3.39935C9.0447 3.30926 9.0416 3.22227 9.03725 3.13591C9.44173 2.84886 9.78159 2.49036 10.0587 2.0778Z" fill="black"/>
</g>
<defs>
<clipPath id="clip0_131_463">
<rect width="9.94116" height="9.94116" fill="white" transform="translate(0.117538 0.189575)"/>
</clipPath>
</defs>
</svg>
