<svg xmlns="http://www.w3.org/2000/svg" version="1.1" xmlns:xlink="http://www.w3.org/1999/xlink" xmlns:svgjs="http://svgjs.dev/svgjs" width="1440" height="560" preserveAspectRatio="none" viewBox="0 0 1440 560"><g mask="url(&quot;#SvgjsMask1005&quot;)" fill="none"><rect width="1440" height="560" x="0" y="0" fill="rgba(79, 3, 54, 1)"></rect><path d="M 0,237 C 57.6,193 172.8,12 288,17 C 403.2,22 460.8,257 576,262 C 691.2,267 748.8,46.6 864,42 C 979.2,37.4 1036.8,233.4 1152,239 C 1267.2,244.6 1382.4,103.8 1440,70L1440 560L0 560z" fill="rgba(255, 255, 255, 1)"></path><path d="M 0,457 C 96,425 288,296.4 480,297 C 672,297.6 768,458.2 960,460 C 1152,461.8 1344,336.8 1440,306L1440 560L0 560z" fill="rgba(79, 3, 54, 1)"></path></g><defs><mask id="SvgjsMask1005"><rect width="1440" height="560" fill="#ffffff"></rect></mask></defs></svg>