<?xml version="1.0" encoding="UTF-8"?>
<svg id="Layer_1" data-name="Layer 1" xmlns="http://www.w3.org/2000/svg" viewBox="0 0 570.06 81.68">
  <defs>
    <style>
      .cls-1 {
        fill: #4f0336;
      }
    </style>
  </defs>
  <path class="cls-1" d="m39.62,0h2.81c4.52,9.27,10.76,25.12,18.71,47.55,5.13,14.37,8.65,23.19,10.55,26.45,1.91,3.26,4.97,5.07,9.19,5.44,1.34.12,2.01.57,2.01,1.34,0,.57-.34.85-1.03.85l-.85-.06c-3.73-.33-8.46-.49-14.21-.49-8.83,0-14.49.14-17,.43-1.26,0-1.88-.36-1.88-1.09,0-.53.46-.85,1.4-.97,3.44-.32,5.82-.91,7.14-1.76,1.32-.85,1.97-2.19,1.97-4.01s-1.23-6.09-3.7-13.06l-3.58-10.45c-2.11,0-11.52.12-28.24.36-4.22,11.21-6.33,18.29-6.33,21.22,0,2.48,1.04,4.32,3.13,5.52,2.08,1.2,4.14,1.86,6.16,1.98,1.5.12,2.25.57,2.25,1.36,0,.32-.24.61-.73.89-6.48-.28-10.38-.43-11.72-.43-6.8,0-11.38.08-13.72.24-1.3,0-1.94-.36-1.94-1.09,0-.65.57-1.05,1.7-1.21,4.66-.61,8.22-3.76,10.69-9.47,2.47-5.71,6.32-15.97,11.55-30.79,4.78-13.48,10.01-26.4,15.68-38.74Zm-2.42,13.24c-3.77,7.69-8.17,18.87-13.2,33.52,4.17-.2,7.17-.3,8.99-.3l17.07.3c-1.5-4.21-3.6-9.8-6.31-16.76-3.32-8.3-5.5-13.89-6.55-16.76Z"/>
  <path class="cls-1" d="m120.39,1.58c4.09,8.87,7.9,16.71,11.43,23.52,4.25,8.14,7.57,14.91,9.94,20.3,2.37,5.39,5.14,10.72,8.3,15.98,8.39-13.9,18.11-33.83,29.18-59.8l24.17.06c.85.13,1.28.5,1.28,1.12s-.49.98-1.46,1.06c-4.29.36-7.16,1.22-8.59,2.58-1.44,1.36-2.33,3.63-2.67,6.83-.34,3.2-.68,9.15-1,17.85-.32,8.71-.49,15.95-.49,21.74,0,11.13.08,17.62.24,19.46.16,1.84.85,3.31,2.06,4.4,1.21,1.09,3.58,1.88,7.11,2.37,1.01.16,1.52.55,1.52,1.15s-.63.91-1.88.91l-23.62-.06h-6.19c-1.38,0-2.06-.32-2.06-.97,0-.57.47-.91,1.4-1.03,3.4-.45,5.66-1.07,6.77-1.88,1.11-.81,1.94-2.26,2.49-4.34.55-2.09.82-7.28.82-15.59l1.15-29.17.61-14.4c0-1.09-.16-1.64-.49-1.64-.49,0-.89.32-1.22.97l-12.04,23.76c-7.7,15.19-12.42,24.92-14.16,29.17l-3.77,9.18c-1.18,2.79-1.89,4.32-2.13,4.59-.24.26-.53.39-.85.39-.49,0-.89-.53-1.22-1.58-.73-2.51-4.48-10.49-11.24-23.95-3.52-7.58-7.75-16.23-12.67-25.95-4.92-9.72-7.59-14.8-7.99-15.22-.41-.43-.71-.64-.91-.64-.41,0-.61.51-.61,1.52l-.67,36.8-.18,12.14c0,6.44.88,10.65,2.64,12.63,1.76,1.98,4.28,2.98,7.56,2.98,2.1,0,3.16.45,3.16,1.34,0,.65-.51.97-1.52.97l-1.28-.06-3.95.06-8.56-.06c-3.73,0-8.52.2-14.39.61-.49-.32-.73-.65-.73-.97,0-.81.71-1.23,2.13-1.28,4.05-.12,7.02-1.46,8.93-4.01,1.9-2.55,2.85-8.27,2.85-17.14l-.12-10.7.85-27.11c0-6.32-.93-10.65-2.79-12.97-1.86-2.33-4.6-3.72-8.2-4.16-1.54-.2-2.31-.61-2.31-1.24,0-.71.57-1.07,1.7-1.07.61,0,1.34.02,2.19.06l21.5.49Z"/>
  <path class="cls-1" d="m252.89,0h2.81c4.52,9.27,10.76,25.12,18.71,47.55,5.13,14.37,8.65,23.19,10.55,26.45,1.91,3.26,4.97,5.07,9.19,5.44,1.34.12,2.01.57,2.01,1.34,0,.57-.34.85-1.03.85l-.85-.06c-3.73-.33-8.46-.49-14.21-.49-8.83,0-14.49.14-17,.43-1.26,0-1.88-.36-1.88-1.09,0-.53.46-.85,1.4-.97,3.44-.32,5.82-.91,7.14-1.76,1.32-.85,1.97-2.19,1.97-4.01s-1.23-6.09-3.7-13.06l-3.58-10.45c-2.11,0-11.52.12-28.24.36-4.22,11.21-6.33,18.29-6.33,21.22,0,2.48,1.04,4.32,3.13,5.52,2.08,1.2,4.14,1.86,6.16,1.98,1.5.12,2.25.57,2.25,1.36,0,.32-.24.61-.73.89-6.48-.28-10.38-.43-11.72-.43-6.8,0-11.38.08-13.72.24-1.3,0-1.94-.36-1.94-1.09,0-.65.57-1.05,1.7-1.21,4.66-.61,8.22-3.76,10.69-9.47,2.47-5.71,6.32-15.97,11.55-30.79,4.78-13.48,10.01-26.4,15.68-38.74Zm-2.42,13.24c-3.77,7.69-8.17,18.87-13.2,33.52,4.17-.2,7.17-.3,8.99-.3l17.07.3c-1.5-4.21-3.6-9.8-6.31-16.76-3.32-8.3-5.5-13.89-6.55-16.76Z"/>
  <path class="cls-1" d="m344.61,0h2.81c4.52,9.27,10.76,25.12,18.71,47.55,5.13,14.37,8.65,23.19,10.55,26.45,1.91,3.26,4.97,5.07,9.19,5.44,1.34.12,2.01.57,2.01,1.34,0,.57-.34.85-1.03.85l-.85-.06c-3.73-.33-8.46-.49-14.21-.49-8.83,0-14.49.14-17,.43-1.25,0-1.88-.36-1.88-1.09,0-.53.46-.85,1.4-.97,3.44-.32,5.82-.91,7.14-1.76,1.32-.85,1.97-2.19,1.97-4.01s-1.23-6.09-3.7-13.06l-3.58-10.45c-2.11,0-11.52.12-28.24.36-4.22,11.21-6.33,18.29-6.33,21.22,0,2.48,1.04,4.32,3.13,5.52,2.08,1.2,4.14,1.86,6.16,1.98,1.5.12,2.25.57,2.25,1.36,0,.32-.24.61-.73.89-6.48-.28-10.38-.43-11.72-.43-6.8,0-11.38.08-13.72.24-1.3,0-1.94-.36-1.94-1.09,0-.65.57-1.05,1.7-1.21,4.66-.61,8.22-3.76,10.69-9.47,2.47-5.71,6.32-15.97,11.55-30.79,4.78-13.48,10.01-26.4,15.68-38.74Zm-2.42,13.24c-3.77,7.69-8.17,18.87-13.2,33.52,4.17-.2,7.17-.3,8.99-.3l17.07.3c-1.5-4.21-3.6-9.8-6.31-16.76-3.32-8.3-5.5-13.89-6.55-16.76Z"/>
  <path class="cls-1" d="m446.82,40.35c5.62,2.44,9.53,4.98,11.73,7.64s3.82,6.76,4.86,12.31c1.36,7.29,3.25,12.19,5.67,14.7s5.59,3.85,9.5,4.01c1.09.08,1.63.47,1.63,1.18s-.63,1.06-1.88,1.06c-11.34,0-18.21-.37-20.62-1.12-2.41-.75-4.2-4.89-5.37-12.42-1.09-7.33-2.24-12.68-3.43-16.06-1.19-3.38-3.1-5.97-5.71-7.77-2.61-1.8-6.69-2.7-12.24-2.7-2.11,0-4.49.22-7.17.67-.2,2.55-.3,5.19-.3,7.94,0,10.39.14,17.11.43,20.16.28,3.05,1.14,5.27,2.58,6.67,1.44,1.39,3.84,2.13,7.2,2.21,1.46.04,2.19.4,2.19,1.06,0,.79-.89,1.19-2.67,1.19h-30.06c-1.74,0-2.61-.39-2.61-1.19,0-.71.69-1.06,2.06-1.06,3.08,0,5.21-.47,6.41-1.4,1.19-.93,2.14-2.38,2.82-4.34.69-1.96,1.03-5.51,1.03-10.65l-.12-12.38.06-18.87c0-9.63-.21-16-.64-19.11-.43-3.11-1.18-5.21-2.28-6.28-1.09-1.07-3.62-1.91-7.59-2.52-.85-.12-1.28-.46-1.28-1.03,0-.65.85-.97,2.55-.97l35.95-.79c9.92,0,17.11,1.9,21.59,5.7,4.47,3.8,6.71,8.45,6.71,13.96,0,3.48-.9,6.66-2.7,9.53-1.8,2.87-3.94,4.96-6.41,6.25-2.47,1.29-6.44,2.77-11.9,4.43Zm-23.02-1.55c7.77-.16,13.6-.71,17.49-1.64,3.89-.93,7.2-2.98,9.93-6.13s4.1-6.9,4.1-11.23c0-4.57-1.52-8.56-4.55-11.96-3.04-3.4-7.89-5.1-14.58-5.1-3.64,0-7.67.49-12.08,1.46-.49,11.13-.73,20-.73,26.6,0,2.27.14,4.94.43,8.02Z"/>
  <path class="cls-1" d="m526.78,0h2.81c4.52,9.27,10.76,25.12,18.71,47.55,5.13,14.37,8.65,23.19,10.55,26.45,1.91,3.26,4.97,5.07,9.19,5.44,1.34.12,2.01.57,2.01,1.34,0,.57-.34.85-1.03.85l-.85-.06c-3.73-.33-8.46-.49-14.21-.49-8.83,0-14.49.14-17,.43-1.25,0-1.88-.36-1.88-1.09,0-.53.46-.85,1.4-.97,3.44-.32,5.82-.91,7.14-1.76,1.32-.85,1.97-2.19,1.97-4.01s-1.23-6.09-3.7-13.06l-3.58-10.45c-2.11,0-11.52.12-28.24.36-4.22,11.21-6.33,18.29-6.33,21.22,0,2.48,1.04,4.32,3.13,5.52,2.08,1.2,4.14,1.86,6.16,1.98,1.5.12,2.25.57,2.25,1.36,0,.32-.24.61-.73.89-6.48-.28-10.38-.43-11.72-.43-6.8,0-11.38.08-13.72.24-1.3,0-1.94-.36-1.94-1.09,0-.65.57-1.05,1.7-1.21,4.66-.61,8.22-3.76,10.69-9.47,2.47-5.71,6.32-15.97,11.55-30.79,4.78-13.48,10.01-26.4,15.68-38.74Zm-2.42,13.24c-3.77,7.69-8.17,18.87-13.2,33.52,4.17-.2,7.17-.3,8.99-.3l17.07.3c-1.5-4.21-3.6-9.8-6.31-16.76-3.32-8.3-5.5-13.89-6.55-16.76Z"/>
</svg>